<svg width="122" height="32" fill="none" xmlns="http://www.w3.org/2000/svg"><path fill-rule="evenodd" clip-rule="evenodd" d="M69.268 10.785c1.542-.847 3.083-1.27 5.045-1.27 4.765 0 8.409 4.237 8.409 10.027 0 7.345-4.485 12.006-11.913 12.006-2.663 0-5.327-.424-7.85-.99.142-2.965.283-21.044 0-24.433-.277-1.696-.7-2.402-1.96-2.684l-.98-.14v-.848l9.39-1.694c-.14 1.411-.14 5.507-.14 10.026zm.14 19.068c.419.14 1.12.14 1.681.14 2.944 0 5.046-4.377 5.047-10.028 0-4.519-1.682-8.19-4.767-8.19-.701 0-1.261.14-2.102.423-.14 7.344 0 15.678.14 17.655zM.034 1.323h24.667l.14 8.333-1.401.424c-1.401-4.238-3.363-6.638-7.148-6.638h-4.905c-.14 2.683-.28 7.203-.28 12.005l3.362-.142c2.103 0 3.082-1.694 3.504-4.095h1.262v10.025h-1.262c-.421-2.4-1.401-4.095-3.504-4.095l-3.363-.142c0 3.671.14 6.638.28 8.475.28 2.684.982 3.955 2.803 4.095l1.682.284v1.13H.034v-1.13l1.402-.284c1.822-.14 2.522-1.411 2.802-4.095.28-4.377.422-13.558 0-18.643-.28-2.683-.98-3.813-2.802-4.095L.034 2.594v-1.27zM43.2 20.39c0-6.356-3.503-11.158-10.51-11.158-7.009 0-10.932 5.085-10.932 11.158 0 6.356 3.503 11.159 10.51 11.159 7.008 0 10.932-5.086 10.932-11.16zm-14.856 0c0-5.508.84-9.745 3.924-9.745 2.945 0 4.345 4.378 4.345 9.745 0 5.508-.843 9.745-4.064 9.745-2.803 0-4.205-4.379-4.205-9.745zm66.99-11.158c-7.148 0-10.792 5.509-10.792 11.3 0 6.497 4.485 11.016 10.792 11.017 3.923 0 7.006-1.979 8.408-3.956l-.56-.705c-1.402.99-2.523 1.553-4.766 1.553-5.046 0-7.568-3.814-7.427-9.04h13.033c0-5.79-2.804-10.169-8.688-10.169zm2.242 8.474-6.587.142c.139-3.25 1.402-7.203 3.784-7.203 2.382 0 2.803 4.237 2.803 7.061zm16.68-8.474c2.523 0 4.765.423 6.446 1.13l.144 5.508-.98.283c-1.264-3.814-2.946-5.368-5.467-5.368-1.681 0-2.945 1.271-2.945 3.107 0 1.837 1.4 2.826 5.326 4.379 3.643 1.413 5.186 3.107 5.186 6.074 0 4.377-3.505 7.203-8.971 7.203-2.663 0-5.746-.566-7.428-1.271l-.14-6.215.981-.283c1.541 4.238 3.505 5.79 6.166 5.79 2.243 0 3.505-1.552 3.505-3.247 0-1.695-.982-2.684-4.485-3.954-3.367-1.13-5.747-2.684-5.747-6.356 0-3.673 3.225-6.78 8.409-6.78zM52.59 14.176c2.242-5.085 6.447-5.79 8.829-4.379l-2.243 5.792c-2.802-1.836-5.886-.99-6.586 0-.14 3.39-.14 8.757.14 11.44.14 1.694.56 2.541 1.962 2.683l1.682.142v1.13H43.34v-1.13l.981-.142c1.263-.142 1.822-.99 1.963-2.682.14-2.966.28-8.899 0-12.289-.14-1.836-.7-2.542-1.963-2.684l-.98-.14v-.848l9.388-1.836-.139 4.943z" fill="#454545"/></svg>