<svg width="28" height="28" fill="none" xmlns="http://www.w3.org/2000/svg"><circle cx="14" cy="14" r="14" fill="#000"/><path fill="#FF5043" d="M25.663 12.799v2.403H14v-2.403z"/><path fill="#FF5043" d="m25.302 17.223-.912 2.224L13.6 15.022l.912-2.223z"/><path fill="#FF5043" d="m23.038 21.36-1.66 1.737-8.43-8.061 1.662-1.737z"/><path fill="#FF5043" d="m19.317 24.37-2.217.928-4.508-10.756 2.217-.929z"/><path fill="#FF5043" d="m21.396 4.84 1.7 1.7-8.248 8.246-1.7-1.7z"/><path fill="#FF5043" d="m24.33 8.494.989 2.19-10.631 4.797-.988-2.19z"/><path fill="#FF5043" d="m17.406 2.721 2.2.967-4.695 10.677-2.2-.968z"/><path fill="#FF5043" d="M12.849 2.337h2.403V14h-2.403zM12.849 14h2.403v11.663h-2.403z"/><circle cx="13.985" cy="13.965" r="3.989" transform="rotate(-90 13.985 13.965)" fill="#FF5043"/></svg>