<svg width="146" height="54" fill="none" xmlns="http://www.w3.org/2000/svg"><path fill-rule="evenodd" clip-rule="evenodd" d="M36.087 25.883c-.892-1.429-2.431-2.35-4.618-2.763 1.638-4.595 2.862-8.31 3.674-11.146.812-2.836 1.217-4.787 1.217-5.854 0-1.406-.364-2.528-1.093-3.364a3.761 3.761 0 0 0-2.963-1.254c-2.52 0-5.53 5.045-9.029 15.134-.483 1.383-.859 2.45-1.126 3.2a377.73 377.73 0 0 0-1.381-4.038C17.28 5.614 14.398.522 12.118.522a4.01 4.01 0 0 0-3.163 1.327c-.776.884-1.163 2.078-1.163 3.583-.003 1.086.42 3.066 1.268 5.94.848 2.875 2.207 6.955 4.075 12.24a9.08 9.08 0 0 0-1.673-.783 4.472 4.472 0 0 0-1.381-.237c-1.018 0-2.103.57-3.255 1.71-1.152 1.139-1.728 2.254-1.728 3.345.026.458.112.91.255 1.345.225.73.493 1.448.802 2.147-1.936.425-3.353 1.208-4.25 2.347C1.01 34.626.56 36.238.56 38.323c.01 1.899.457 3.77 1.309 5.467a17.232 17.232 0 0 0 3.93 5.074 16.26 16.26 0 0 0 5.466 3.4 18.226 18.226 0 0 0 6.561 1.218c5.723.002 10.42-1.941 14.095-5.832 3.674-3.89 5.511-8.89 5.511-15.002-.005-3.081-.453-5.336-1.345-6.765zM6.844 39.781a58.609 58.609 0 0 0-1.418-1.822v-.011c-.145.147-.25.329-.306.528-.064.231-.095.47-.091.71.002 1.425.791 2.883 2.366 4.375 1.574 1.492 3.126 2.238 4.654 2.238.93.016 1.83-.33 2.511-.963a3.023 3.023 0 0 0 1.054-2.31 4.506 4.506 0 0 0-.055-.602 6.42 6.42 0 0 0-.164-.783c.216.066.435.12.656.163.205.038.412.056.62.055.205.003.41-.035.601-.11a2.007 2.007 0 0 0 .565-.364v.328c0 1.964.309 3.533.926 4.71.617 1.176 1.46 1.8 2.526 1.873l.073-.328v-.255a10.123 10.123 0 0 0-.565-2.092 9.392 9.392 0 0 1-.565-2.89 8.114 8.114 0 0 1 1.326-4.167c.895-1.5 2.08-2.807 3.489-3.842a13.696 13.696 0 0 1 2.945-1.457c1.288-.496 2.138-.938 2.551-1.327a2.35 2.35 0 0 0-.419-1.145 1.001 1.001 0 0 0-.82-.364h-1.49c-4.124.01-7.107-.355-8.949-1.094-1.842-.738-2.763-1.933-2.763-3.582 0-.703.182-1.2.547-1.491.364-.292.983-.438 1.855-.438a40.402 40.402 0 0 1 9.003.98c2.875.657 4.809 1.397 5.803 2.22a3.707 3.707 0 0 1 1.199 2.093 16.45 16.45 0 0 1 .364 3.874c0 5.31-1.594 9.728-4.782 13.257a15.36 15.36 0 0 1-11.875 5.292 15.877 15.877 0 0 1-7.045-1.53 14.433 14.433 0 0 1-5.33-4.418 16.039 16.039 0 0 1-2.164-3.693 8.948 8.948 0 0 1-.73-3.328 5.052 5.052 0 0 1 1.072-3.218c.717-.909 1.5-1.363 2.348-1.363.388 0 .904.284 1.545.853a21.61 21.61 0 0 1 2.42 2.708 23.483 23.483 0 0 1 2.001 2.872c.486.85.73 1.458.73 1.822a1.202 1.202 0 0 1-.547.908c-.349.286-.786.44-1.236.438-1.356 0-2.835-1.104-4.436-3.31zm10.12-1.11a1.497 1.497 0 0 1-.625.159v-.011c-.559 0-1.31-.396-2.256-1.189a20.25 20.25 0 0 1-3.018-3.346 24.751 24.751 0 0 1-2.438-3.71c-.606-1.164-.908-2.036-.908-2.617 0-.559.309-1.16.926-1.8.617-.642 1.18-.963 1.691-.963.63 0 1.296.309 2.001.926.85.802 1.573 1.727 2.147 2.744a32.266 32.266 0 0 1 2.493 4.965c.666 1.686.999 2.759.999 3.218-.009.456-.191.892-.51 1.218-.136.17-.307.309-.502.406zm2.937-17.417-3.926-11.35c-1.018-2.884-1.807-4.77-2.366-5.657-.559-.887-1.166-1.33-1.822-1.327a1.518 1.518 0 0 0-1.225.584 2.405 2.405 0 0 0-.474 1.563c0 1.115.424 3.06 1.272 5.832.848 2.773 2.122 6.398 3.82 10.876.133-.256.353-.456.62-.565a2.955 2.955 0 0 1 1.093-.164c.146 0 .436.012.871.037.435.024 1.147.081 2.137.17zm1.147 10.69a22.4 22.4 0 0 0 2.964.329c-.727.468-1.412.997-2.049 1.581a18.08 18.08 0 0 0-1.822 1.983 20.312 20.312 0 0 0-.73-2.293 29.072 29.072 0 0 0-1.034-2.328c.867.32 1.761.565 2.671.729zM32.65 11.556c-.911 2.877-2.178 6.522-3.802 10.935l-4.592-.806L27.9 11.172c.848-2.498 1.624-4.31 2.329-5.438.704-1.127 1.396-1.691 2.074-1.691a1.504 1.504 0 0 1 1.253.583c.331.48.491 1.056.456 1.637.003.65-.452 2.415-1.363 5.292zM59.83 35.921 53.6 19.254h-3.748L43.55 35.92h3.699l1.296-3.712h6.232l1.26 3.712h3.794zm-8.112-12.56 2.091 6.118-4.308-.003 2.172-6.114h.045zm12.346 2.17v-1.677h-3.151v12.054h3.333v-6.325c.01-1.23.213-2.113.606-2.649s1.042-.804 1.945-.804c.793 0 1.346.245 1.657.736.311.49.467 1.234.467 2.23v6.822h3.3v-7.424a9.75 9.75 0 0 0-.198-2.043 3.89 3.89 0 0 0-.687-1.563 3.242 3.242 0 0 0-1.342-1.005 5.63 5.63 0 0 0-2.182-.363 4.726 4.726 0 0 0-2.056.48 3.803 3.803 0 0 0-1.62 1.53h-.072zm21.783 11.278a4.092 4.092 0 0 1-.853 1.738 5.083 5.083 0 0 1-1.89 1.365 8.15 8.15 0 0 1-3.313.56 7.718 7.718 0 0 1-1.81-.22 5.752 5.752 0 0 1-1.678-.687 4.13 4.13 0 0 1-1.262-1.203 3.483 3.483 0 0 1-.57-1.763h3.29a1.89 1.89 0 0 0 .912 1.297c.482.248 1.02.373 1.562.363.934 0 1.615-.28 2.043-.84a3.297 3.297 0 0 0 .619-2.124v-1.588h-.046a3.284 3.284 0 0 1-1.53 1.413 4.95 4.95 0 0 1-2.088.454 5.27 5.27 0 0 1-2.334-.48 4.426 4.426 0 0 1-1.62-1.296 5.449 5.449 0 0 1-.922-1.946 9.169 9.169 0 0 1-.291-2.347 7.519 7.519 0 0 1 .324-2.253c.21-.693.546-1.342.992-1.913a4.792 4.792 0 0 1 1.62-1.32 4.863 4.863 0 0 1 2.231-.489 4.668 4.668 0 0 1 2.088.444c.64.337 1.164.857 1.504 1.495h.046v-1.621h3.151v11.298c0 .56-.06 1.117-.175 1.663zm-4.539-4.013c.349-.178.653-.434.889-.746.237-.32.415-.68.525-1.063.118-.406.177-.826.175-1.248a6.84 6.84 0 0 0-.14-1.414 3.533 3.533 0 0 0-.466-1.18 2.422 2.422 0 0 0-.863-.817 2.726 2.726 0 0 0-1.355-.305 2.43 2.43 0 0 0-1.203.279c-.333.186-.62.445-.84.759-.23.33-.397.703-.489 1.096-.103.424-.154.86-.152 1.296 0 .436.043.87.13 1.297.078.408.228.799.444 1.154.208.34.492.628.83.84.391.232.842.344 1.296.324.423.007.84-.087 1.22-.275v.003zm12.806.953c-.933 0-1.649-.241-2.146-.723-.497-.482-.769-1.259-.817-2.331h8.715a8.544 8.544 0 0 0-.234-2.684 6.568 6.568 0 0 0-1.063-2.29 5.364 5.364 0 0 0-1.877-1.598 5.742 5.742 0 0 0-2.685-.596 6.254 6.254 0 0 0-2.509.49 5.831 5.831 0 0 0-3.21 3.361 7.037 7.037 0 0 0-.457 2.52c-.01.874.136 1.744.431 2.567a5.829 5.829 0 0 0 1.226 2.007 5.336 5.336 0 0 0 1.945 1.297 6.898 6.898 0 0 0 2.568.454 6.321 6.321 0 0 0 3.501-.934c.964-.623 1.679-1.658 2.146-3.106h-2.917c-.167.446-.48.82-.889 1.063a2.956 2.956 0 0 1-1.728.503zm-.207-7.72c.808 0 1.411.217 1.809.65.447.55.733 1.212.826 1.915h-5.391a3.77 3.77 0 0 1 .152-.794c.092-.305.243-.59.445-.837.228-.279.515-.505.839-.664a2.888 2.888 0 0 1 1.32-.27zm11.032-6.775V35.92h-3.316V19.254h3.316zm6.306 13.584V19.254h-3.663v16.664h11.784v-3.08h-8.121zm9.496-10.851v-2.73h3.313v2.73h-3.313zm3.313 1.867v12.067h-3.313V23.854h3.313zm5.742 9.697a1.955 1.955 0 0 1-.571-.629 1.808 1.808 0 0 1-.246-.927h-3.151a4.04 4.04 0 0 0 .548 2.02c.325.527.769.97 1.296 1.297a5.425 5.425 0 0 0 1.787.7 10.278 10.278 0 0 0 4.075.013 5.112 5.112 0 0 0 1.764-.688 3.66 3.66 0 0 0 1.734-3.264 2.814 2.814 0 0 0-.324-1.414 2.992 2.992 0 0 0-.863-.972 4.65 4.65 0 0 0-1.225-.62 14.084 14.084 0 0 0-1.414-.395 43.661 43.661 0 0 0-1.377-.305 10.642 10.642 0 0 1-1.203-.324 2.517 2.517 0 0 1-.853-.454.906.906 0 0 1-.324-.723.898.898 0 0 1 .188-.596c.124-.142.28-.253.454-.325.19-.08.391-.132.596-.152.202-.023.404-.034.607-.036a3.314 3.314 0 0 1 1.54.324 1.448 1.448 0 0 1 .723 1.297h3.151a3.968 3.968 0 0 0-.571-1.854 3.775 3.775 0 0 0-1.203-1.18 5.032 5.032 0 0 0-1.647-.63 9.557 9.557 0 0 0-1.903-.187c-.641-.001-1.282.058-1.912.175a5.263 5.263 0 0 0-1.68.606c-.495.285-.909.69-1.203 1.18a3.628 3.628 0 0 0-.453 1.913 2.56 2.56 0 0 0 .324 1.342c.216.365.51.676.862.911.379.252.792.448 1.226.584.46.149.931.277 1.413.386.939.181 1.863.43 2.766.745.661.251.992.625.992 1.122.01.261-.064.52-.211.736a1.596 1.596 0 0 1-.525.467c-.22.12-.456.206-.701.256-.241.053-.488.08-.735.08a3.774 3.774 0 0 1-.947-.116 2.45 2.45 0 0 1-.804-.363zm15.639-9.697v2.218h-2.428v5.975c0 .56.094.934.282 1.122.188.188.562.28 1.122.278.188 0 .366 0 .538-.022.164-.015.328-.039.49-.072v2.568c-.31.05-.621.081-.934.094a22.93 22.93 0 0 1-1.005.023 9.72 9.72 0 0 1-1.459-.104 3.444 3.444 0 0 1-1.213-.408 2.163 2.163 0 0 1-.83-.863 3.08 3.08 0 0 1-.304-1.472V26.06h-2.007V23.84h2.007v-3.605h3.313v3.618h2.428z" fill="#454545"/></svg>