<svg width="87" height="69" fill="none" xmlns="http://www.w3.org/2000/svg"><path fill-rule="evenodd" clip-rule="evenodd" d="M44.43 10.384h2.37s1.267 0 1.439.602c-.198.163-.469.295-.769.442-1.113.546-2.632 1.29-2.366 4.518l3.985 26.94 12.452-29.847C64.088 6.374 58.742.809 54 .639a9.28 9.28 0 0 0-.674-.03c-4.257 0-9.135 3.115-8.896 9.775zm-18.9 2.737C22.814 5.681 28.917.809 32.98.726c4.665-.519 10.513 3.073 9.493 10.853l-4.405 31.31L25.53 13.121zM12.984 28.863C6.718 24.667 7.983 17.488 11.46 14.32c4.915-4.184 11.864-2.746 14.404 3.852l12.123 27.96-25.002-17.269zM49.263 46.05 61.04 18.426c1.928-4.732 5.253-6.391 8.36-6.39 2.629 0 5.111 1.181 6.463 2.712 3.226 3.25 4.155 9.828-1.607 13.942L49.263 46.05zm22.195-13.43L47.986 49.128h28.9c5.93 0 9.74-6.155 8.047-11.803-1.135-3.55-4.491-6.337-8.387-6.341-1.64 0-3.38.498-5.088 1.638zM39.26 49.128H10.786c-5.935 0-10.595-5.475-8.729-12.14 2.202-5.822 8.301-7.875 13.725-4.366L39.26 49.126zM.092 61.072C.092 63.883 2.374 69 11.09 69c8.036 0 10.574-3.712 10.574-5.414h-6.221s-.296 2.248-3.805 2.248c-3.512 0-4.461-2.95-4.461-4.657 0-1.7.95-4.491 4.46-4.491s3.806 1.958 3.806 1.958h6.221c0-1.704-1.862-5.364-10.574-5.364-8.716 0-10.998 5.449-10.998 7.792zM76.334 69c-8.713 0-10.998-5.117-10.998-7.928 0-2.343 2.285-7.792 10.998-7.792 8.714 0 10.574 3.66 10.574 5.364h-6.216s-.297-1.958-3.808-1.958c-3.512 0-4.462 2.791-4.462 4.491 0 1.706.95 4.657 4.462 4.657 3.51 0 3.808-2.248 3.808-2.248h6.216c0 1.702-2.539 5.414-10.574 5.414zM38.666 53.542v9.516l-7.24-9.516h-8.144v15.073h5.583v-9.626l7.114 9.626h8.271V53.542h-5.584zM56.56 65.034v-.02c.993 0 1.796-.612 1.796-1.367 0-.757-.803-1.372-1.796-1.372v-.009h-4.653v2.768h4.653zm-.127-8.56h-4.483v2.255h4.483v-.007c.76 0 1.375-.498 1.375-1.12 0-.619-.616-1.122-1.375-1.122v-.006zm7.838.638c0 2.302-2.125 3.49-3.142 3.49 0 0 3.68.599 3.68 3.452 0 2.852-2.158 4.56-7.53 4.56H46.11V53.543H57.28c.93 0 6.99.293 6.99 3.57z" fill="#454545"/></svg>