<svg width="73" height="100" fill="none" xmlns="http://www.w3.org/2000/svg"><path fill-rule="evenodd" clip-rule="evenodd" d="M72.635 72.125H.939V.385h71.696v71.74zM19.276 37.824c0 3.388.904 3.765 4.761 3.909v1.239H8.704v-1.239c3.19-.144 4.095-.521 4.095-3.91V15.717c0-3.388-.905-3.769-4-3.91v-1.238h27.047l.193 7.145h-1.334c-1.143-3.62-2.382-4.763-8.716-4.763h-4.907c-1.472 0-1.806.332-1.806 1.667v10.248h2.417c5.048 0 6.144-.91 6.762-4.294h1.239v11.44h-1.238c-.666-3.814-2.572-4.764-6.763-4.764h-2.417v10.577zm47.199-27.256H38.092l-.66 7.149h1.629c1.039-3.5 2.567-4.767 5.983-4.767h4v24.874c0 3.388-.904 3.765-4.57 3.909v1.239h15.62v-1.239c-3.667-.144-4.571-.521-4.571-3.91V12.95h3.998c3.419 0 4.948 1.267 5.985 4.767h1.626l-.657-7.149zM4.738 85.163c-.986-.04-1.219-.137-1.219-1.003v-2.71h1.416c1.072 0 1.56.245 1.731 1.223h.318v-2.93h-.318c-.158.865-.438 1.098-1.73 1.098H3.518v-2.622c0-.345.086-.43.463-.43H5.24c1.623 0 1.94.293 2.232 1.22h.34l-.046-1.829H.835v.317c.793.036 1.027.132 1.027 1.002v5.661c0 .866-.234.963-1.049 1.003v.308h3.925v-.308zm8.173 0c-.989-.04-1.219-.137-1.219-1.003V78.5c0-.87.23-.967 1.22-1.003v-.317h-4.1v.317c.99.036 1.22.132 1.22 1.002v5.661c0 .866-.23.963-1.22 1.003v.308h4.1v-.308zm7.426-7.666c.904.1 1.124.429 1.124 1.235v4.161l-4.94-5.713h-2.258v.317c.512.12.843.353 1.123.846v5.585c0 .806-.22 1.135-1.123 1.235v.308h2.929v-.308c-.903-.1-1.12-.43-1.12-1.235v-4.795l5.657 6.543h.415v-6.944c0-.806.219-1.135 1.12-1.235v-.317h-2.927v.317zm6.795 1.72L25.888 82.5h2.477l-1.233-3.284zm4.695 5.946v.308h-3.585v-.308c.574 0 .877-.125.877-.525 0-.269-.248-.894-.402-1.28a10.064 10.064 0 0 1-.097-.248h-3.002c-.017.05-.045.123-.079.211-.145.381-.395 1.04-.395 1.317 0 .4.28.525.853.525v.308h-2.634v-.308c.524-.113.805-.269 1.013-.782l3.037-7.397h.401l2.916 7.14c.318.782.476 1.051 1.097 1.04zm6.918-7.666c.901.1 1.12.429 1.12 1.235v4.161l-4.94-5.713H32.67v.317c.512.12.842.353 1.123.846v5.585c0 .806-.22 1.135-1.123 1.235v.308h2.928v-.308c-.903-.1-1.122-.43-1.122-1.235v-4.795l5.66 6.543h.413v-6.944c0-.806.22-1.135 1.123-1.235v-.317h-2.926v.317zm7.87 8.179c1.72 0 2.855-.674 3.722-2.153l-.33-.253c-.378.526-1.269 1.72-2.878 1.72-2.063 0-3.025-1.5-3.025-3.736 0-1.596.852-3.71 2.804-3.71 1.453 0 2.317.927 2.806 2.21h.367l-.172-2.77h-.413c-.198.357-.271.489-.514.489-.058 0-.221-.049-.444-.116-.482-.144-1.244-.373-1.836-.373-2.891 0-4.38 2.381-4.38 4.27 0 2.65 1.598 4.422 4.294 4.422zm8.96-.513c-.988-.04-1.221-.137-1.221-1.003V78.5c0-.87.233-.967 1.22-1.003v-.317h-4.099v.317c.99.036 1.221.132 1.221 1.002v5.661c0 .866-.231.963-1.22 1.003v.308h4.098v-.308zm4.64-5.946L58.97 82.5h2.476l-1.232-3.284zm4.697 5.946v.308h-3.588v-.308c.573 0 .878-.125.878-.525 0-.269-.249-.894-.402-1.28a9.931 9.931 0 0 1-.097-.248h-3l-.073.194c-.145.378-.403 1.052-.403 1.334 0 .4.28.525.853.525v.308h-2.634v-.308c.525-.113.805-.269 1.013-.782l3.038-7.397h.402l2.916 7.14c.316.782.474 1.051 1.097 1.04zm.724 0v.308h6.588l.56-2.213h-.317c-.708 1.464-1.586 1.732-3.074 1.732-.927 0-1.074-.168-1.074-.67V78.5c0-.87.233-.967 1.147-1.003v-.317h-3.83v.317c.794.036 1.025.132 1.025 1.002v5.661c0 .866-.231.967-1.025 1.003zM3.804 97.548c0 .866-.23.962-1.172 1.002v.309h4v-.309c-.938-.04-1.17-.136-1.17-1.002v-6.371h1.026c.962 0 1.341.389 1.607 1.511h.368l-.196-2.121H1l-.196 2.121h.367c.267-1.122.646-1.511 1.61-1.511h1.024v6.371zm9.611.998c-.987-.036-1.22-.132-1.22-.998v-5.666c0-.866.233-.962 1.22-.998v-.321H9.316v.321c.99.036 1.22.132 1.22.998v5.666c0 .866-.23.962-1.22.998v.313h4.1v-.313zm11.562-7.979h-2.855l-2.317 5.758-2.206-5.758h-3.013v.317c.878 0 1.12.221 1.12.794v5.637c0 .806-.218 1.135-1.12 1.235v.309h2.926v-.309c-.903-.1-1.121-.429-1.121-1.235v-5.601h.024l2.707 7.249h.378l2.769-7.249h.025v5.834c0 .866-.233.962-1.05 1.002v.309h3.733v-.309c-.794-.04-1.024-.136-1.024-1.002v-5.666c0-.866.23-.962 1.024-.998v-.317zm1.177 7.983v.309h7.122l.56-2.217h-.316c-.707 1.467-1.587 1.736-3.073 1.736-1.464 0-1.61-.173-1.61-.67v-2.871h1.414c1.073 0 1.56.245 1.732 1.219h.318v-2.927h-.318c-.16.866-.44 1.099-1.732 1.099h-1.413v-2.626c0-.341.083-.425.463-.425h1.255c1.621 0 1.94.293 2.233 1.219h.34l-.049-1.829h-6.926v.317c.791.036 1.023.132 1.023.998v5.666c0 .866-.232.962-1.023 1.002zm9.08-2.297h-.319v2.71h.44c.048-.269.197-.413.414-.413.222 0 .413.076.65.169.376.148.866.34 1.765.34 1.49 0 2.563-1.002 2.563-2.305 0-1.654-1.384-2.387-2.58-3.02-.912-.482-1.715-.907-1.715-1.639 0-.565.344-1.163 1.27-1.163 1.123 0 1.976.878 2.317 2.073h.318v-2.634h-.318c-.06.257-.206.437-.438.437-.22 0-.422-.07-.665-.153-.365-.126-.822-.284-1.569-.284-1.267 0-2.377.978-2.377 2.125 0 1.246 1.192 1.934 2.32 2.584 1.013.584 1.973 1.138 1.973 2.039 0 .65-.379 1.379-1.425 1.379-1.221 0-2.271-1.147-2.624-2.245z" fill="#454545"/></svg>