<svg width="148" height="96" fill="none" xmlns="http://www.w3.org/2000/svg"><path d="M77.809 77.842v17.68H7.967v-17.68h69.842z" fill="#161616"/><path d="M51.888 88.003h-17.68V39.602h17.68v48.401z" fill="#161616"/><path fill-rule="evenodd" clip-rule="evenodd" d="M24.42 24.314c3.863-3.863 5.433-9.146 4.688-14.195l17.636-2.602c1.532 10.388-1.7 21.383-9.718 29.402-7.866 7.866-18.598 11.126-28.81 9.8l2.297-17.678c4.962.645 10.118-.938 13.908-4.727z" fill="#161616"/><path d="m86.495 76.75-8.892-15.401 60.57-34.97 8.892 15.4-60.57 34.97z" fill="#161616"/><path fill-rule="evenodd" clip-rule="evenodd" d="M95.386 61.362c0 9.187 7.43 16.635 16.596 16.635s16.596-7.448 16.596-16.635h17.805c0 19.044-15.402 34.481-34.401 34.481-19 0-34.401-15.438-34.401-34.48h17.805zM112.622 25.005c-9.187 0-16.635 7.43-16.635 16.596H78.141c0-18.999 15.438-34.4 34.481-34.4s34.481 15.401 34.481 34.4h-17.846c0-9.165-7.448-16.596-16.635-16.596z" fill="#161616"/></svg>