<svg width="32" height="32" fill="none" xmlns="http://www.w3.org/2000/svg"><path fill-rule="evenodd" clip-rule="evenodd" d="M16 0c8.83 0 16 7.17 16 16s-7.17 16-16 16S0 24.83 0 16 7.17 0 16 0zm-2.818 24.51c7.08 0 10.951-5.867 10.951-10.952 0-.167 0-.335-.008-.495a7.885 7.885 0 0 0 1.924-1.995 7.81 7.81 0 0 1-2.211.607 3.847 3.847 0 0 0 1.692-2.132 7.795 7.795 0 0 1-2.442.934 3.83 3.83 0 0 0-2.81-1.213 3.85 3.85 0 0 0-3.847 3.847c0 .304.031.6.103.878A10.919 10.919 0 0 1 8.6 9.966a3.86 3.86 0 0 0-.519 1.932c0 1.333.679 2.514 1.716 3.2a3.78 3.78 0 0 1-1.74-.478v.048a3.853 3.853 0 0 0 3.09 3.776 3.837 3.837 0 0 1-1.74.063 3.843 3.843 0 0 0 3.591 2.674A7.737 7.737 0 0 1 7.3 22.77a10.724 10.724 0 0 0 5.883 1.74z" fill="#fff"/></svg>