<svg width="67" height="85" fill="none" xmlns="http://www.w3.org/2000/svg"><path d="M66.183.931v17.168H17.175V.93h49.008z" fill="#161616"/><path fill-rule="evenodd" clip-rule="evenodd" d="M17.2 18.099c0 9.071 7.302 16.303 16.16 16.303v16.822C15.04 51.224.31 36.327.31 18.1H17.2z" fill="#161616"/><path fill-rule="evenodd" clip-rule="evenodd" d="M49.185 50.997c0-9.021-7.237-16.213-16.015-16.213V17.948c18.216 0 32.861 14.864 32.861 33.05 0 18.185-14.645 33.05-32.86 33.05C14.954 84.047.31 69.182.31 50.997h16.846c0 9.021 7.237 16.212 16.014 16.212 8.778 0 16.015-7.191 16.015-16.213z" fill="#161616"/></svg>