<svg width="71" height="89" fill="none" xmlns="http://www.w3.org/2000/svg"><path d="M70.322 52.48v17.641H0v-17.64h70.322z" fill="#000"/><path d="M61.06 88.326H43.417V44.022H61.06v44.304z" fill="#000"/><path fill-rule="evenodd" clip-rule="evenodd" d="M31.098 31.029c5.063-5.064 5.063-13.273 0-18.337L43.79 0c12.073 12.073 12.073 31.648 0 43.72C37.51 50 29.188 53.013 20.98 52.76l.274-8.97-.275 8.97A30.839 30.839 0 0 1 .07 43.72L12.761 31.03a12.89 12.89 0 0 0 8.767 3.791 12.905 12.905 0 0 0 9.57-3.791z" fill="#000"/></svg>