<svg width="149" height="96" fill="none" xmlns="http://www.w3.org/2000/svg"><path d="M148.415 59.998v17.64H78.093v-17.64h70.322z" fill="#161616"/><path d="M139.152 95.843h-17.641V51.54h17.641v44.304z" fill="#161616"/><path fill-rule="evenodd" clip-rule="evenodd" d="M109.191 38.546c5.063-5.063 5.063-13.273 0-18.337l12.692-12.691c12.073 12.073 12.073 31.647 0 43.72-6.278 6.278-14.602 9.292-22.81 9.04l.274-8.97-.275 8.97a30.84 30.84 0 0 1-20.91-9.04l12.692-12.692a12.89 12.89 0 0 0 8.768 3.792 12.906 12.906 0 0 0 9.569-3.792z" fill="#161616"/><path d="M77.55 77.842v17.68H7.706v-17.68H77.55z" fill="#161616"/><path d="M51.629 88.003H33.948V39.602h17.68v48.401z" fill="#161616"/><path fill-rule="evenodd" clip-rule="evenodd" d="M24.162 24.314c3.862-3.863 5.432-9.146 4.687-14.195l17.635-2.602c1.533 10.388-1.698 21.383-9.717 29.402-7.866 7.866-18.599 11.126-28.81 9.8l2.297-17.678c4.962.645 10.118-.938 13.908-4.727z" fill="#161616"/></svg>