<svg width="188" height="38" fill="none" xmlns="http://www.w3.org/2000/svg"><path fill-rule="evenodd" clip-rule="evenodd" d="m.287 25.234 2.371-.377V2.727L0 2.376.143 0H16.7l-.402 6.697-3.304-.087-.2-4.203H7.67v9.95h2.232l.516-2.29 2.32.057v6.872h-2.291L9.9 14.648H7.67v10.557h5.152l.488-4.58 3.476.117.259 6.986H.173l.114-2.494zm18.274 2.494.087-2.059 1.86-.376V11.339l-2.175-.203V9.049l5.444-.782.41 1.189v.782c1.321-1.392 2.901-2.203 4.912-2.203 2.96 0 5.143 1.798 5.143 5.393v11.866l1.975.377-.115 2.058h-6.42V14.427c0-1.914-.697-2.987-2.394-2.987-.575 0-.985.116-1.443.261-.288.232-.546.58-.776.9v12.692l1.953.376-.143 2.059H18.56zm103.961-2.059-.087 2.059h8.318l.143-2.059-1.953-.376V12.6c.228-.32.488-.668.775-.9.46-.145.87-.26 1.443-.26 1.695 0 2.393 1.072 2.393 2.986V27.73h6.421l.115-2.058-1.975-.377V13.428c0-3.595-2.183-5.393-5.143-5.393-2.011 0-3.591.81-4.912 2.203v-.782l-.409-1.19-5.444.783v2.087l2.176.203v13.954l-1.861.377zm-76.04 1.674c-.746.32-2.096.666-3.849.666-2.298 0-4.438-1.043-4.438-4.436V11.33l-2.183-.348.086-2.436 2.472-.116 1.063-3.711 3.146-.146v3.972h3.42l-.237 2.435-3.122.35v12.214c0 1.014.546 1.682 1.58 1.682h1.86l.203 2.117zm128.773-1.616-.086 2v.003h8.299l.143-2.002-1.955-.405V12.008c.575-.405 1.265-.608 1.983-.724l.315 2.811 3.103.116.575-5.248-.833-.725c-2.386 0-4.396.725-5.863 1.826V9.63l-.373-1.362-5.623.782v2.088l2.068.204v13.98l-1.753.406zm-81.072 2 .086-2 1.753-.406v-13.98l-2.07-.204V9.05l5.624-.782.373 1.362v.435c1.466-1.101 3.476-1.826 5.862-1.826l.834.725-.575 5.248-3.103-.116-.315-2.812c-.719.117-1.409.32-1.983.725v13.315l1.954.405-.143 2.002h-8.297v-.002zm-46.244-2-.086 2v.003h8.296l.143-2.002-1.954-.405V12.008c.574-.405 1.264-.608 1.983-.724l.316 2.811 3.103.116.575-5.248-.833-.725c-2.385 0-4.396.725-5.861 1.826V9.63l-.374-1.362-5.624.782v2.088l2.07.204v13.98l-1.754.406zm17.74-6.502c0 3.333 1.427 5.915 4.291 5.915 1.465 0 2.643-.32 4.023-.957l.776 1.826c-1.408 1.13-3.456 2-6.042 2-5.006 0-7.898-4.378-7.898-10.003 0-4.784 2.083-10.02 7.844-10.02 5.004 0 6.903 4.685 6.903 9.904l-.489 1.246-9.409.089zm-.088-2.233 5.783-.26c-.115-2.321-.591-6.02-2.854-6.02-.537 0-.924.088-1.614.465-.93 1.594-1.327 4.476-1.315 5.815zm84.272 8.148c-2.863 0-4.292-2.582-4.292-5.915l9.408-.089.488-1.246c0-5.219-1.899-9.903-6.902-9.903-5.763 0-7.844 5.235-7.844 10.02 0 5.624 2.892 10.002 7.898 10.002 2.586 0 4.635-.87 6.042-2l-.775-1.826c-1.38.637-2.556.957-4.023.957zm1.404-8.409-5.782.26c-.011-1.338.384-4.22 1.314-5.814.69-.377 1.077-.464 1.614-.464 2.263 0 2.739 3.698 2.854 6.018zm-39.26 2.494c0 3.333 1.428 5.915 4.292 5.915 1.466 0 2.643-.32 4.022-.957l.776 1.826c-1.407 1.13-3.456 2-6.043 2-5.006 0-7.898-4.378-7.898-10.003 0-4.784 2.082-10.02 7.843-10.02 5.003 0 6.902 4.685 6.902 9.904l-.488 1.246-9.406.089zm-.087-2.233 5.782-.26c-.115-2.321-.591-6.02-2.854-6.02-.537 0-.924.088-1.613.465-.931 1.594-1.326 4.476-1.315 5.815zm56.057 9.083.488 1.653h5.357l.23-2.059-1.947-.377V9.74l-.488-1.653-6.313.725v1.827l2.241.203V23.67a7.869 7.869 0 0 1-.861 1.072c-.545.231-1.155.29-1.638.29-1.698 0-2.543-1.102-2.543-3.219V9.74l-.489-1.653-6.248.725v1.827l2.177.203v11.551c0 4.118 2.65 5.625 5.609 5.625 1.925 0 3.16-.725 4.425-1.942zm-83.044-.841c-1.005 0-1.781-.175-2.413-.521V12.448c.258-.405.575-.782.891-1.13a4.976 4.976 0 0 1 1.72-.29c2.583 0 3.01 2.641 3.01 7.369 0 4.123-.55 5.54-.787 6.15a5.462 5.462 0 0 0-.063.167c-.691.347-1.438.52-2.358.52zm7.706-7.695c0-5.854-1.723-9.533-5.999-9.533-2.843 0-4.195 1.656-4.752 2.355v-.638L81.4 8.07l-5.616.784v1.998l2.176.29V34.79l-1.84.377-.086 1.972h8.296l.143-1.973-1.953-.376v-7.5c.776.436 1.888.725 3.096.725 6.96.003 7.023-7.181 7.023-10.477zM188 26.374c0-.795-.603-1.36-1.549-1.36-.922 0-1.55.557-1.55 1.36 0 .801.636 1.36 1.55 1.36.93 0 1.549-.559 1.549-1.36zm-.484-.002c0 .552-.421.936-1.065.936-.635 0-1.057-.384-1.057-.936 0-.558.422-.935 1.057-.935.644 0 1.065.384 1.065.935zm-1.732.426-.008.189h.725l.015-.188-.158-.035v-.244h.119c.111.222.23.361.357.466h.373l.016-.188-.11-.02c-.08-.05-.191-.182-.271-.308.151-.062.262-.174.271-.37.008-.28-.287-.383-.605-.383h-.739l-.008.188.183.021v.837l-.16.035zm.571-.487v-.363h.088c.152 0 .271.029.271.188 0 .105-.041.175-.223.175h-.136z" fill="#454545"/></svg>