<svg width="203" height="31" fill="none" xmlns="http://www.w3.org/2000/svg"><g clip-path="url(#a)"><path fill-rule="evenodd" clip-rule="evenodd" d="M30.608 0v10.333H20.405V31H10.203V10.333H0V0h30.608zm30.608 0H40.811v10.333H30.608V31h30.608V20.667H40.811V10.333h20.405V0zM80.5 7.233H66.488v4.1h4.693V24.18h4.625V11.332H80.5V7.233zm-.476 10.61c0-4.41 2.449-6.649 5.748-6.649 3.469 0 5.611 2.308 5.577 7.027 0 .379 0 .654-.034.861h-7.38c.17 1.412.987 2.032 2.143 2.032 1.122 0 2.006-.24 3.265-.895l1.632 2.79c-1.53.93-3.129 1.446-5.101 1.446-3.775 0-5.85-2.72-5.85-6.613zm5.646-3.41c-.987 0-1.53.654-1.667 1.928h3.571c-.204-1.274-.646-1.929-1.904-1.929zm13.876 6.475c-1.157 0-1.769-1.034-1.769-3.066 0-1.998.544-3.134 1.666-3.134.919 0 1.327.516 1.939 1.653l2.959-2.273c-1.089-1.791-2.449-2.894-4.83-2.894-4.013 0-5.985 2.687-5.985 6.58 0 4.27 2.21 6.647 5.883 6.647 2.211 0 3.571-.861 5.034-3.031l-2.721-2.17c-.816 1.24-1.36 1.688-2.177 1.688zm11.665-8.611c.782-.586 1.666-1.103 3.162-1.103 2.721 0 4.047 1.895 4.047 5.236v7.784H114.1v-7.233c0-1.619-.544-2.067-1.428-2.067-.918 0-1.462.448-1.462 2.033v7.267h-4.32V8.301l4.32-1.757v5.753zm17.582 8.06c-2.006 0-2.823-2.067-2.823-4.65 0-2.687.851-4.65 2.789-4.65 1.531 0 2.109.998 2.687 2.583l4.217-1.688c-1.156-3.203-2.789-4.994-6.904-4.994-4.489 0-7.652 3.306-7.652 8.749 0 5.028 2.653 8.748 7.618 8.748 3.979 0 5.85-2.17 6.972-4.374l-3.911-2.101c-.918 1.584-1.53 2.377-2.993 2.377zm13.842-8.887v.93c.714-.723 1.564-1.206 2.687-1.206.918 0 1.53.241 2.04.551l-1.02 4.513c-.544-.62-1.156-1.068-2.007-1.068-1.054 0-1.7.517-1.7 2.067v6.923h-4.319V11.47h4.319zm13.944 7.268c0 1.584-.544 2.032-1.429 2.032-.884 0-1.428-.448-1.428-2.067V11.47h-4.319v7.784c0 3.341 1.326 5.201 4.081 5.201 1.462 0 2.38-.516 3.129-1.102v.861h4.319v-12.71h-4.319l-.034 7.234zm11.767-6.441c.782-.586 1.666-1.103 3.163-1.103 2.754 0 4.047 1.895 4.047 5.167v7.784h-4.32v-7.233c0-1.619-.544-2.067-1.428-2.067-.918 0-1.462.448-1.462 2.033v7.267h-4.319v-12.71h4.319v.862zm15.78 8.61c-1.156 0-1.768-1.033-1.768-3.065 0-1.998.544-3.134 1.632-3.134.918 0 1.326.516 1.939 1.653l2.958-2.273c-1.088-1.791-2.448-2.894-4.829-2.894-4.013 0-5.986 2.687-5.986 6.58 0 4.27 2.211 6.647 5.884 6.647 2.211 0 3.571-.861 5.033-3.031l-2.72-2.17c-.749 1.24-1.327 1.688-2.143 1.688zm11.665-8.61c.782-.586 1.667-1.103 3.163-1.103 2.755 0 4.081 1.895 4.047 5.236v7.784h-4.319v-7.233c0-1.619-.544-2.067-1.429-2.067-.918 0-1.462.448-1.462 2.033v7.267h-4.319V8.301l4.319-1.757v5.753z" fill="#424241"/></g><defs><clipPath id="a"><path fill="#fff" d="M0 0h203v31H0z"/></clipPath></defs></svg>