<svg width="194" height="40" fill="none" xmlns="http://www.w3.org/2000/svg"><path d="M73.9 18.114h-.315v-.986c.21-.035.385 0 .525.14.175.282.105.705-.21.846zm.77-1.056c-.56-.247-1.33-.176-1.925-.176 0 .07 0 .14.035.176.07 0 .21.035.21.035v.985c-.035 0-.175 0-.21.036 0 .07-.035.14 0 .176.595-.036 1.19.176 1.75 0a.813.813 0 0 0 .385-.704c0-.176-.07-.423-.245-.528zM75.72 9.208l.175.07s-.07.141-.035.212c.07.105.14.176.245.14.14-.07.21-.246.175-.352h.14l.035.141c-.035.211-.07.387-.385.387-.28-.035-.385-.316-.35-.598zm.595.845.245.07.07.106.105-1.338-.105-.105s-.175.246-.56.246a3.45 3.45 0 0 1-.63-.07c.07.21-.035.492.105.739.14.352.455.387.77.352zM77.855 9.208h.14c-.035.106.035.282.175.352.105.035.175-.035.245-.14.035-.071-.035-.212-.035-.212l.175-.07c.035.246-.07.563-.35.563-.315 0-.385-.141-.385-.387l.035-.106zm.455.704c.455-.07.455-.669.455-1.091-.28.14-.385.176-.665.211-.28 0-.525-.246-.525-.246l-.105.035.245 1.373c.035 0 .175-.247.595-.282z" fill="#424241"/><path d="M92.66 19.346c-.035-.247-.105-.493-.35-.634-.14-.035-.35-.07-.455.035-.21.106-.21.352-.175.563.035.07.105.176.245.141.21-.14-.175-.387.14-.493.14-.035.245.176.28.282 0 .246-.105.493-.315.598-.245.036-.49.07-.7-.035-.21-.176-.385-.422-.42-.704-.035-.387.21-.774.595-.95.805-.387 1.365.317 1.925.845-.28 0-.595.07-.77.352zm-3.22-2.077c-.14-.247-.07-.599.035-.81.14-.246.42-.493.7-.563.42-.07.77.07 1.085.317.455.457.735 1.091 1.12 1.584-.42-.141-1.05-.07-1.435.281-.105.212-.245.388-.28.634-.315-.458-.77-.986-1.225-1.443zm-3.815 1.584c-1.05-.07-1.995.035-2.905.352.07-.599.105-1.267.07-1.83.49-.634 1.365-.564 2.135-.634 1.4-.106 2.555.246 3.885.493.28.81 1.19 1.337 1.505 2.112-1.575.176-3.08-.352-4.69-.493zm-.455.915c-.77.035-1.575 0-2.24-.211.595-.352 1.4-.387 2.1-.387l.175.035c-.035.14 0 .352-.035.563zm-5.285 0-5.915-1.056c-.805-.14-1.75-.07-2.555 0 .14-.528.175-1.126.14-1.654.07-.282.42-.282.665-.423.98-.246 1.995 0 2.94.106 2.415.457 4.76.985 7.28 1.161.07.564-.035 1.162-.035 1.69.175.282.49.246.735.317-1.085.07-2.205 0-3.255-.141zm-6.125-.246c-.77-.036-1.61-.07-2.275-.282l-.07-.106c.665-.316 1.645-.281 2.38-.105l-.035.493zm-9.94.035c.735-.282 1.54-.493 2.24-.88-.735-.387-1.54-.669-2.24-1.162 2.38.176 4.935.317 7.455.211.035.564-.21 1.092-.14 1.584.28.352.7.317 1.05.423-2.765.211-5.705.105-8.365-.176zm5.11-4.048c.805 0 1.47-.282 2.17-.458.7-.105 1.4.035 1.995-.176.035.352.21.669.07 1.056l-.945.106c-.385.105-.875.317-1.05.704-.07-.106.07-.423-.175-.423-.07 0-.14.036-.175.106 0 .07.07.14.035.211-.21.07-.28.247-.175.423-.035.035-.105 0-.14 0-.175-.106-.105-.352-.28-.458-.07-.14.105-.211 0-.317-.07-.07-.245-.07-.315 0-.105.176.035.458-.245.528l.07.317c-.21.106-.245-.176-.315-.282-.035-.176-.245-.281-.07-.457.035-.07-.07-.141-.14-.141-.105 0-.175.035-.21.106.105.21-.105.281-.245.352l.035.422c-.175 0-.21-.176-.28-.317.035-.176-.175-.14-.21-.281.07-.388.105-.916.595-1.021zm3.395-4.189c.175-1.197 1.4-1.76 2.1-2.605 0 .493-.385.845-.7 1.197l-1.4 1.408zM73.9 7.976c-.035.704-.77 1.056-1.26 1.443.245-.598.7-1.197 1.26-1.443zm.385-.598c.525-.07 1.05.07 1.435.457.035-.07.14-.105.175-.176v-.07c.315-.106.7-.211 1.05-.211.42-.036.875.035 1.33.105.035.07.07.176.175.176.21-.105.35-.387.595-.493.21-.07.49-.105.7-.105-.07.317-.07.633-.35.88-.105.14-.315.035-.35.211.385.563.35 1.443.21 2.077-.07.14-.14.281-.42.352-.105.035-.245.035-.245.035l-.035.106.35.21-.035.212-.315-.14-.035.175.35.211-.035.176-.35-.14-.07.21.35.212-.07.317-1.05-.423v-.492c.175-.07.35-.247.385-.423.035-.105.035-.281-.035-.352-.21.141-.385.211-.63.247-.315.035-.525-.07-.665-.141-.105.176-.035.352.07.493.105.14.385.21.385.21v.494l-.98.457-.105-.281.315-.212-.07-.246-.315.211-.07-.176.35-.246-.07-.211-.35.21-.035-.14.35-.282-.035-.14c-.28-.036-.665-.106-.77-.458-.175-.528-.175-1.197-.14-1.76 0-.07.21-.14.07-.211-.49.035-.7-.563-.875-.915h-.14zm.735-1.338c-.14-.07-.175-.211-.175-.211a3 3 0 0 1 .805-.458c.035 0 0 .352 0 .352-.035.07-.105.035-.21.176-.105.106.035.352.175.352h.175c.07.211-.07.317-.245.387-.21.106-.315-.176-.315-.176l.175-.07-.21-.422c-.035-.106-.105.105-.175.07zm3.535.774-.105.106a6.509 6.509 0 0 0-2.975.176c-.035-.035-.105-.035-.14-.106.91-.352 2.205-.387 3.22-.176zm-.63-1.654-.175.317c-.105.035-.28-.035-.28.14-.07.247.07.423.28.353 0 .105-.07.246-.21.281-.14.07-.315-.035-.385-.176V5.97h.175v-.528h-.175V5.23s-.175-.035-.28-.035c-.105 0-.21.035-.21.035v.247h-.175v.528h.21s0 .281-.14.317c-.28.07-.35.035-.42-.141v-.106s.245 0 .245-.211c0-.14 0-.282-.175-.282-.105 0-.105.036-.21.036 0 0-.105-.352-.105-.388.595-.176 1.33-.281 2.03-.07zm.14.845a.227.227 0 0 0 .35-.176c0-.141-.175-.247-.28-.247L78.1 5.23l.735.317-.035.211-.21-.105-.14.422.14.07s-.07.282-.42.212c-.14 0-.14-.211-.105-.352zm3.815 4.435c-.735-.74-2.065-1.02-2.17-2.182.665.88 1.925 1.056 2.17 2.182zm-.28-1.514c-.49-.352-1.435-.563-1.47-1.372.7.176 1.12.81 1.47 1.372zm-1.05 5.562c-.42-.106-1.05-.106-1.33-.634-.21-.352-.35-.915-.14-1.337.035.845.91 1.408 1.47 1.971zm.63-.07c-.63-.95-2.03-1.55-1.855-2.887.315 1.127 2.065 1.549 1.855 2.887zm-1.365-4.964c.665.845 2.03 1.303 1.96 2.535-.595-.88-1.96-1.338-1.96-2.535zm1.715 3.767c-.595-.986-2.17-1.443-1.89-2.746.455 1.021 1.925 1.514 1.89 2.746zm-4.865.387h.21c-.21.176-.315.458-.35.74h-.42c.105-.247.21-.634.56-.74zm1.155.598-.735.07c.035-.246.105-.562.315-.738.28.105.35.422.42.668zm1.015-.035-.49-.035a1.497 1.497 0 0 0-.35-.598c.385-.07.665.352.84.633zm-.7-1.161-1.54.07c-.105-.035-.175-.176-.07-.282.245-.21.525-.422.875-.457.35.07.7.14.91.422 0 .141-.07.247-.175.247zM74.6 15.509l-.035.563-.315-.035c.035-.211.175-.387.35-.528zm-.28-.387c.21-.775 1.4-1.338 1.295-2.324.21.282.245.74.14 1.056-.245.634-.98.845-1.435 1.268zm-.42.844-.315-.035c.035-.07.105-.14.175-.211.105.035.105.176.14.246zm-.175-1.09c-.28-.951.735-1.55 1.155-2.324.175-.246.245-.528.35-.845.385 1.338-1.015 2.112-1.505 3.168zm-.98-2.183c-.175-1.267 1.225-1.971 1.715-2.887-.035 1.162-1.225 1.866-1.715 2.887zm1.995-1.866c.35 1.338-1.33 2.007-1.54 3.203-.21-1.337 1.085-2.112 1.54-3.203zm7.91 2.605c.14-.176 0-.422-.035-.634l-.245-.88c1.75.317 3.325 1.338 5.145 1.584.07.282.385.493.63.599l.63.035a2.52 2.52 0 0 0 .595 1.478c-.245.282-.42.634-.595.916-1.505-.212-3.045-.599-4.655-.423.28-.422.105-.95 0-1.408-.245-.176-.35-.633-.735-.669-.245.282.28.528.28.845.14.458.035.95-.21 1.303-.385.176-1.05.387-1.05.985-.84 0-1.61-.14-2.415-.246-.35-.317-.595-.845-1.155-.74-.105-.035-.21-.07-.35-.035.07.317-.455.212-.245.564-.28.105-.175-.352-.385-.458.035-.14.21-.387-.035-.458-.105-.035-.21.106-.21.176.175.317-.42.282-.175.599-.105.035-.245-.07-.245-.176.035-.176-.245-.282-.105-.493.07-.035.07-.14 0-.211-.035-.106-.175-.035-.245 0-.14.14.105.528-.245.493v.21c-.35.071-.175-.351-.42-.457 0-.176.28-.387.035-.493-.105 0-.21.07-.245.176 0 .141-.07.317-.245.317v.282c-.35.07-.14-.387-.42-.493.035-.352.21-.74.525-.88 1.4.14 2.94-.669 4.2.211.56-.317 1.505.352 1.785-.493l.105-.528c.175.141.35.352.56.458.14-.14 0-.282 0-.422-.14-.423-.28-.845-.315-1.303.105.176.21.528.49.669zm5.39-.95c.245-.317.56-.423.91-.458.315.035.63.106.84.422.49.704-.28 1.936.735 2.887-.245-.07-.42.07-.665.035-.63-.563-.56-1.478-.455-2.253-.035-.14-.105-.352-.315-.422-.21-.035-.49 0-.595.211-.035.14 0 .352.175.387.07 0 .105-.07.14-.105-.035-.07-.07-.106-.035-.212.035-.07.175-.07.245-.035.14.106.07.282.035.423a.664.664 0 0 1-.665.176c-.14-.07-.35-.212-.42-.388-.07-.176-.035-.457.07-.668zm.035-2.112c-1.365.176-3.255 1.478-4.305-.141-.28-.528-.21-1.267.14-1.725 1.225-1.302 2.87.14 4.27-.246.21-.176.42-.388.42-.67v-.351c.175.246.175.669.035.95-.07.211-.315.423-.525.493-1.225.176-2.345-.74-3.535-.176-.315.246-.49.598-.49.986 0 .281.07.528.245.704 1.015.88 2.205-.106 3.29-.212.595-.07 1.19.07 1.54.528-.035.07-.14.176-.21.247-.28-.211-.525-.387-.875-.387zm-.98-.493c-.665.105-1.33.493-1.995.281-.175-.07-.175-.316-.105-.492.175-.247.525-.106.805-.106l1.295.317zm1.61-.775c-.315.247-.735.282-1.155.212-1.015 0-2.03-.845-2.975-.141l-.105.14c-.035-.14.035-.492.28-.563 1.365-.633 3.78 1.514 4.2-.915.175.458.105.986-.245 1.267zm1.575.986a.663.663 0 0 1 .63-.035c.245.105.49.317.49.633 0 1.056-.455 1.866-.385 3.063.035.739.105 1.302.315 1.865-.98-.704-1.05-1.443-1.015-2.78 0-.423-.35-.74-.7-.95-.28-.177-.56-.106-.805-.106.56-.528 1.05-1.092 1.47-1.69zm1.365-2.077c.105.493.7.775 1.155.845-.385.352-.525 1.056-1.12 1.162-.385.035-.735-.247-.875-.599-.21-.739.525-.845.84-1.408zm-.175 5.527c0-1.162.28-2.359.875-3.344.28-.458.595-.81.595-.81v-.845c-.315-.035-.665-.14-.875-.422-.21-.247-.315-.458-.315-.845 0-.422.28-.845.735-.95.42-.141.84-.036 1.12.246.21.246.245.458.245.74 0 .351-.245.633-.525.633-.175 0-.385-.035-.525-.247-.105-.176-.105-.457.105-.457.245 0 .035.176.175.246.07.035.21.035.245-.07.035-.106.035-.247-.07-.317-.105-.14-.28-.176-.455-.106-.245.07-.35.388-.28.634.105.387.315.493.63.528h1.05l.595-.387.735-.352s-.07-.352-.175-.458l-.91.493c-.035-.493-.245-1.056-.63-1.373-.385-.317-1.05-.457-1.645-.211-.7.282-1.015.986-.98 1.69-.455.598-1.435 1.09-1.015 1.97-.42 0-.63.494-.91.74l-.56-.458.455-.316c.385-.458.595-1.162.35-1.76-.175-.634-.735-1.268-1.435-1.373-.315-.07-.595 0-.84.176-.14.14-.175.387-.175.598.07.211.245.387.455.352.28-.07-.105-.211 0-.387.035-.14.21-.14.35-.14.21.07.315.316.28.527-.07.176-.245.282-.42.317-1.225-.035-2.555-.95-3.675-.106-.63.317-.98.986-1.05 1.62-.035.704.21 1.302.735 1.724 1.19.986 2.87.212 4.13-.105.21-.07.525-.07.63.176-.525.493-1.12 1.056-1.155 1.76-1.75-.352-3.255-1.197-5.005-1.584-.21 0-.245-.247-.315-.352l.665.211.035-.07c-.28-.528-.49-1.092-.735-1.584.21 0 .385.21.63.176V9.56c-.805-.88-1.12-2.358-2.415-2.57-.035-.246.105-.492.105-.739h-.14l-1.295.352-.035-.035c.07-.352.315-.669.525-.986-.105-.14.14-.246.07-.422-.035-.211-.315-.211-.49-.176.035-.598-.56.035-.665-.422-.105-.07-.28-.036-.385.035l-.14-.211a.656.656 0 0 0-.385.035c-.07-.317-.42-.493-.28-.845.14 0 .245.035.385.035a1.34 1.34 0 0 0 0-.528h-.455V2.59c-.175-.035-.35.036-.56.036 0 .14.07.352.07.528H76c-.035.176.035.352.035.528.14 0 .28-.141.455-.036.105.352-.175.564-.21.88l-.035-.035c-.14 0-.245-.035-.35.035-.035.458-.385-.14-.56.212.035.457-.42-.07-.525.281.07.423-.315.106-.455.352-.14.176.14.352.035.528.315.211.56.599.665.95-.455-.105-1.05-.035-1.47-.21.035.281.21.492.21.774-.805.211-1.33 1.02-1.505 1.795-.105.422-.49.74-.49 1.197.175 0 .315-.211.455-.141-.14.634-.525 1.162-.56 1.795.175.106.385-.246.63-.246-.07.669 0 1.337-.21 1.971.14.282.385-.246.595-.211-.035.211.07.493 0 .704-1.47.07-2.8.563-4.2.774-.525.211-.56.845-.735 1.303-.105.387.49.352.385.739-2.31.035-4.515-.317-6.685-.528.98.774 2.03 1.408 3.115 1.971v.035c-1.155.528-2.38.81-3.605 1.162 3.08.422 6.195.739 9.45.633 1.19-.035 2.415-.07 3.535-.352.245-.176.07-.528.175-.739 3.605.458 7.21 1.76 11.06.986.525 0 .21-.599.35-.845 1.75.035 3.395.774 5.18.458.28.422.735.633 1.225.528.84-.106 1.295-1.373 2.275-.916.735.493 2.1 1.092 3.36 1.127l-.49-.528c-3.745-.634-5.635-3.696-5.635-6.547z" fill="#424241"/><path d="M80.865 18.29v-.176l-.945-.141v.211h.105v.845c-.07.14-.245.14-.385.14-.35 0-.21-1.302-.21-1.302l-.84-.105v.21s.105.036.14.071c.035.423-.105.95.28 1.232.28.176.7.247 1.05.07l.105.142.665.105v-.211l-.14-.035v-1.021l.175-.035zM77.82 18.712c-.14.035-.525 0-.525 0v-.422s.14.035.21.07c.07.07.14.211.28.141-.035 0 0-.493 0-.493-.035-.035-.175-.035-.21.07-.07.036-.28 0-.28 0v-.387s.49 0 .665.212c.07.105.105.281.105.281h.245l-.07-.528-1.75-.317v.212l.175.07v1.02l-.21-.034v.21l1.68.318.175-.528-.21-.07c-.035.07-.14.14-.28.175zM86.395 17.093v.598h.105s.105-.176.21-.246c.07-.035.28 0 .28 0v1.02h-.21v.177l.98.176v-.141l-.175-.106v-1.02s.175.035.245.105l.21.317h.175v-.599l-1.82-.281zM85.765 18.22c-.245.14-.56 0-.56 0v-.353s.315-.07.315.106h.14v-.458h-.14s-.07.211-.35.141v-.352c.14-.07.315-.106.49 0 .14.07.245.317.245.317h.175l-.105-.528h-1.68v.211l.175.035v.986l-.175.07v.176h1.68l.14-.422-.21-.035c-.035-.036-.105.07-.14.105zM75.16 17.269l.21.105v.986c-.035.035-.21 0-.21 0l-.035.176 1.05.211v-.211L76 18.501V17.48h.175v-.176l-1.05-.211v.176h.035zM88.74 15.298l-.105-.247-2.59-.457.105.14c.84.212 1.715.458 2.59.564zM88.775 15.826l.14-.211a38.395 38.395 0 0 1-3.5-.67l.105.142c1.085.316 2.135.598 3.255.739zM88.565 14.735c0-.07.035-.212-.07-.247-.63-.105-1.33-.14-1.925-.246l.07.105c.63.141 1.26.317 1.925.388zM100.08 7.624c-1.225.317-2.835.352-4.06 0v-.387c1.12-.458 2.94-.458 4.06-.07v.457zm-4.445-.739-.105.035c.315.282 0 .74.35.986 1.295.387 2.94.317 4.2-.035.455-.176.035-.775.385-1.021-1.505-.563-3.36-.528-4.83.035z" fill="#424241"/><path d="M96.405 4.35c-.245.141-.21.247-.245.317 0 .106.14.317.14.317s-.245-.07-.315 0c-.175.14-.105.282-.105.458 0 .105.07.14.14.21.105-.105.14-.14.385-.14a.49.49 0 0 1-.315.598c-.315.106-.455-.07-.56-.281.07-.07.105-.07.315-.106l-.28-.633-.315.281-.105-.176-.035-.211c.315-.211.91-.528 1.295-.634zm3.22 0c-.385 0-.42.317-.35.528-.07-.07-.28-.176-.42-.07-.21.14-.14.422-.07.634.105-.106.28-.106.42-.036-.035.247-.14.458-.49.458-.42 0-.42-.387-.42-.458.105 0 .175 0 .315.036a1.326 1.326 0 0 1 0-.74h-.315l.07-.387h-.805l.07.387h-.315c.105.247.175.528.07.704.105 0 .21 0 .315-.035.035.141-.035.458-.35.493-.315.035-.455-.14-.49-.422.14-.07.21-.07.315 0 .035-.036.105-.141.105-.212-.035-.176-.035-.352-.21-.422-.14-.035-.315.07-.315.07s.035-.246-.035-.352c-.035-.105-.175-.21-.315-.21.91-.282 2.24-.388 3.22.034zm1.19.599-.105.352c-.14-.106-.175-.141-.28-.211l-.315.598c.105.035.245.035.315.14-.14.247-.35.388-.595.282-.315-.14-.245-.352-.21-.598.175 0 .245.035.315.14.105-.105.28-.28.21-.527-.035-.141-.28-.141-.385-.106.14-.211.175-.457-.105-.598.385.07.805.281 1.155.528zm-6.265.14-.07.071c.455.422.735.95.945 1.478 1.575-.563 3.64-.633 5.18-.035.14-.317.21-.633.42-.915.105-.211.455-.563.455-.563l-.105-.07s.14-.106.14-.212c.035-.211.07-.422-.07-.528-.175-.105-.385-.07-.56-.035a.531.531 0 0 0-.14-.387c-.175-.176-.455-.035-.595 0 0-.14-.07-.247-.175-.352-.175-.07-.385 0-.525.105-.07-.105-.105-.246-.21-.316-.175-.141-.42-.036-.56.07l-.105-.352-.21-.458-.07-.457.595.14V1.43l-.595.176.105-.88h-.945l.105.88-.665-.176v.845l.665-.141-.07.493-.175.422-.07.352a.748.748 0 0 0-.42-.14c-.21 0-.28.21-.35.351a.516.516 0 0 0-.455-.14c-.21.07-.28.281-.35.422l-.105-.07c-.175-.036-.42-.036-.525.175-.105.07.07.388-.14.282-.175-.106-.42-.035-.525.14-.105.282 0 .564.175.67zM96.545 7.66l.56.07.105-.07c.56-.071 1.085-.071 1.68 0l.07.105.525-.106c-.875-.281-2.065-.281-2.94 0zM80.62 16.53c.595.07 1.26-.07 1.89-.106.455-.211.42-.88.315-1.302-.035 0-.105.035-.14.035-.105.317.035.81-.28.986l-1.75.21-.035.177zM88.565 16.318c.07-.07.035-.176.07-.246-1.085-.176-2.17-.317-3.22-.598 0 .035.035.105.07.14.98.352 2.03.528 3.08.704zM111.595 18.36h.525v-.176h-.14v-.704l.875.985h.245v-1.267h.105v-.21h-.49v.175h.14v.387l-.63-.598-.84-.035.035.21h.315v1.022h-.14v.21zM110.475 18.325c-.21.035-.315-.176-.35-.493-.035-.352-.175-.704.21-.74.28-.034.28.318.315.564.035.317.035.634-.175.669zm-.035-1.373c-.28.035-.56.07-.735.282-.175.176-.245.422-.175.704.035.21.21.387.42.492.315.106.7.07.98-.035.385-.176.49-.633.35-1.02-.21-.317-.525-.458-.84-.423zM114.675 16.107c-.07 0-.175 0-.175.07.07.282-.07.705.175.916.7.105 1.4.281 2.03.633.035.036.21.106.21-.035-.56-.422-1.225-.669-1.925-.81-.35-.07-.07-.563-.315-.774z" fill="#424241"/><path d="M127.38 19.346c.245-.07.7-.141.91-.423 0-.528-.21-1.02-.175-1.584 1.47-.035 2.905-.176 4.34-.281-.7.528-1.54.81-2.345 1.197.63.422 1.505.598 2.275.915-1.645.14-3.36.281-5.005.176zm-1.715-.141c0-.211-.175-.493-.035-.634.77-.07 1.575-.07 2.275.141-.035.211-.35.14-.49.247-.56.14-1.155.21-1.75.246zm-5.11.176c0-.563.805-.282.98-.81.07-.281.035-.598-.14-.845-.525-.563-1.295-.07-1.89-.035l-.315-.21c2.66-.318 5.04-1.48 7.875-1.268.245.07.56.14.7.422.035.563.035 1.197.175 1.76-2.625-.492-5.005.493-7.385.986zm-.35-1.584c.14-.07.35-.035.49.07.245.211.35.81-.035.95.035 0-.42-1.02-.455-1.02zm-.91-.95h.105v.035l-.105-.036zm.455 2.886c-.455.246-.945 0-1.4-.035-.63-.07-1.295-.176-1.855.07-.455-.176-.875-.422-1.295-.704.21-.387.7-.422 1.155-.457.595.175 1.12.704 1.855.492.175 0 .35-.035.42-.21-.21-.318-.63-.318-.945-.423-1.19-.247-2.17-1.056-3.465-.986-.385-.457-.105-1.162-.14-1.725.07-.105.35-.246.21-.422-.035-.106-.175-.07-.245-.035l-.56.352c.035.176.035.352.035.528-.385-.07-.84-.212-1.295-.212-.105-.351.385-.07.35-.387l.105-1.337c-.035-.247-.42-.176-.21-.493.105 0 .28.105.385 0l.735-1.232c.035-.14-.07-.246-.14-.317l.175-.176c.175.317.56 0 .84 0 .28-.176.945.035.875-.528v-.07l.315-.036c0 .247-.035.599-.21.74-.455.176-1.155.035-1.575.246l-.42.704c.945-.246 2.065-.211 3.01-.528.98.387 1.96.704 2.905 1.267-.35.458-.14 1.056-.07 1.584-.035.634-.385 1.127-.84 1.584-.385-.387.28-.668.315-1.056.07-.21.175-.598-.035-.81-.35 0-.07.458-.245.634-.105.282-.35.528-.42.81-.21-.035-.42-.282-.525-.458-.105-.21.28-.492-.035-.633-.315.246-.63.633-1.015.774-.035.035-.07.106-.035.176.245.282.525-.105.77.176.91.704 1.75 1.549 2.765 1.971.245.423-.105.81-.245 1.162zm-5.635-1.479c0-.176.175-.21.315-.246.56-.105.98.211 1.435.387-.35.07-.665.212-.98.458-.315-.07-.595-.317-.77-.599zm-.455 1.514c.105-.07.315-.14.385-.317l-.035-.422c.175.14.35.282.63.282 0 .175.21.352.35.422l-1.33.035zm-2.1-.176-.07-.563c.77-.035 1.505.035 2.17.317l-.035.07c-.63.247-1.365.247-2.065.176zm-5.495-.457c.21-.423.595-.88.98-1.268l.14.141v.669h-.14v.176h.525v-.14l-.14-.036v-.422l.525.563.49-.74.07.493s-.105.035-.175.035v.212l.945-.176-.035-.247s-.14.035-.175.035l-.14-.915.175-.035-.035-.246-.595.105-.385.775-.63-.67h-.175l.105-.245c1.89-.212 3.885-.88 5.845-.317.175.07.28.176.315.316.175.423-.105 1.092.07 1.584.035.07.035.141.035.247-2.555-.986-4.97.563-7.595.105zm-.385-.458c-.07-.282-.35-.74-.735-.915-.315-.141-.77-.106-1.085.035.56-.81 1.015-2.323 2.345-1.971.315.105.595.422.63.739.175.95-.98 1.337-1.155 2.112zm-.525.845a.758.758 0 0 1-.77.246c-.21-.07-.35-.246-.42-.457-.035-.177 0-.352.175-.423.105 0 .21 0 .245.106.035.105-.175.246 0 .317.105 0 .21-.106.245-.212a.497.497 0 0 0-.28-.528.687.687 0 0 0-.525.106c-.175.105-.14.317-.175.493a1.34 1.34 0 0 0-.875-.317c.56-.493 1.155-1.127 1.96-.915.28.105.595.422.595.739.035.352 0 .634-.175.845zm-.455-8.624c0-.247.07-.599.315-.81.245-.176.455-.281.735-.14l1.68 1.76c-.49-.106-.98.034-1.33.457-.595.774.105 2.006-.525 2.78l-.595.6c.455-1.514.315-3.31-.28-4.647zm-.21-1.021c-.49-.176-.665-.563-1.05-1.056.385-.07.805-.352.98-.74 0-.07.07-.105.07-.175.455.457 1.365 1.02.77 1.724-.245.176-.49.352-.77.247zm7.21.105c.315-.281.525-.633.42-1.055.035-.352-.35-.564-.525-.775-1.225-.493-2.345.423-3.605.211a.79.79 0 0 1-.455-.704v-.035c.14.247.42.458.735.458 1.365-.035 3.255-1.197 4.235.281.175.317.21.81.105 1.197-.07.352-.42.704-.735.88-1.575.845-3.185-1.091-4.69.106l-.21-.176c1.33-1.479 3.115.422 4.725-.387zm-.21-.422c0 .14-.175.317-.315.317-.735.105-1.47-.106-2.17-.282.735-.14 1.47-.457 2.275-.317.14.07.175.176.21.282zm-4.76-.88c1.435 1.056 2.975-.211 4.515-.07.35.105.63.457.525.845-.035-.212-.28-.423-.49-.458-1.54-.246-3.43 1.338-4.55-.317zm1.085 3.45c.175.14.315.352.385.563.035.282-.07.493-.245.669-.14.176-.385.176-.595.14-.14-.035-.245-.21-.315-.352-.035-.14.035-.281.175-.316.315-.07.035.528.385.281.07-.105.035-.316-.035-.422a.547.547 0 0 0-.525-.106c-.56.388-.035 1.056-.175 1.62-.035.422-.21.774-.56 1.055a.966.966 0 0 0-.63 0c.56-.633.525-1.584.49-2.428.035-.282.21-.563.455-.74.385-.175.84-.175 1.19.036zm4.06 2.323.35.035-.07.88-.35-.035.07-.88zm.455-1.373c.175-.211.245-.457.42-.669l.28.176a3.318 3.318 0 0 1-.42.775c-.105-.106-.385-.141-.28-.282zm2.415-1.866c.105.036.07.212.105.317-.245.141-.56.141-.84.211-.035-.105-.07-.246-.035-.352l.77-.176zm2.555.528c.14.07.28.036.315-.105-.07-.528.385-.95.49-1.443.385 0 .735-.247.91-.599.07-.21.14-.528.035-.774-.035-.035-.14-.14-.175-.035-.035.281-.175.668-.525.774-.525.176-1.155 0-1.68-.07-.49.105-1.05.105-1.435.528-.14.105-.385.07-.525-.036-.07-.07-.175-.21-.035-.281.175-.106.49 0 .63-.211.035-.176-.105-.352-.28-.423-.35-.21-.875.599-.84-.14l.07-.493c.14.105.385.176.56.105.105-.035.21-.14.14-.246-.14-.282-.35.035-.56 0 .035-.211.315-.246.49-.317.665-.105 1.33-.317 1.785-.88.455-.14.98.211 1.4-.07.14-.352.455-.704.84-.915.07.422.245.985-.105 1.372.035.106.175.106.315.07.105-.07.105-.21.175-.316 1.225.74 1.645 2.077 1.435 3.45-.175.633-.35 1.302-.7 1.865-.035 0-.105-.176-.245-.176.035-.105.07-.352-.07-.457-.245 0-.35.387-.63.246-.07.07-.14.176-.14.282.035.07.14.035.175.105 0 .14-.105.247-.245.282-.175 0-.385-.07-.42-.282-.035-.07-.035-.246.035-.281.105.035.315.281.35 0 0-.177.315-.353.035-.493l-.21-.036c.035-.105.175-.14.14-.281-.175-.106-.35-.211-.595-.211-.07.07-.035.176-.035.281-.105.035-.175-.14-.28-.105-.07.176-.14.387-.21.563l.315.105a.52.52 0 0 1-.525.247c-.105-.07-.245-.106-.28-.246-.035-.212.035-.317.105-.353zm.84-6.37c.245-.317.63-.6.98-.74 0 .634-.525 1.127-1.015 1.443-.175-.21-.035-.492.035-.704zm2.45-.388c0 .669-.7 1.02-.91 1.62-.14-.036-.14-.212-.21-.317-.07-.704.63-1.056 1.12-1.303zm1.19.81c-.14.774-1.05.845-1.435 1.443-.14 0-.14-.176-.175-.246.14-.81 1.05-.916 1.61-1.197zm1.12 1.337c-.56.493-1.365.564-2.065.74-.105-.036-.035-.212-.035-.282.525-.563 1.365-.422 2.1-.458zm.42 1.338c-.525.387-1.4.282-2.065.211-.14-.035-.105-.211 0-.281.63-.423 1.435-.036 2.065.07zm.105 1.267c-.63.176-1.61.246-2.065-.246 0-.106.105-.176.175-.212.7 0 1.295.212 1.89.458zm-.28 1.197c-.665.176-1.4 0-1.82-.528-.035-.106.07-.176.14-.176.665.035 1.12.493 1.68.704zm-1.96.528c-.035-.035 0-.14 0-.211.07-.07.245-.07.35-.036l1.12.845c-.63.07-1.12-.176-1.47-.598zm-.35.95c-.035-.105-.105-.281-.035-.422h.21l.84 1.091c-.385-.07-.735-.317-1.015-.669zm-.455.845c-.035-.106 0-.281.105-.317.385.106.525.634.875.88-.385.035-.805-.21-.98-.563zm-.7-.14c-.07-.036-.14-.036-.21-.106-.035-.106.035-.211.105-.247.07 0 .175 0 .175.106.07.106 0 .176-.07.246zm2.31 2.745c.28 0 .56 0 .735.176-1.05.317-2.135.563-3.255.74.805-.177 1.645-.67 2.52-.916zm9.59 2.358a22.62 22.62 0 0 0 3.115-2.041c-2.17.316-4.27.528-6.545.528-.175-.035-.035-.317-.14-.458-.63-.88-1.96-.634-2.975-.598-.7-.07-1.505.739-1.995-.106-.315-.282-.77-.211-1.19-.246-.735.176-1.435.633-2.17.739.21-.493.035-1.091 0-1.62.035-.105.035-.246.14-.316.28.493.805.774 1.33.74.035-.177-.28-.318-.315-.529.455.211 1.12 0 1.54.247 0-.388-.525-.704-.735-.986.42 0 .77 0 1.12.07-.105-.422-.455-.88-.77-1.161h.805c.245-.035.525 0 .77-.035-.14-.423-.595-.775-.98-.95l.77-.107c.21-.105.56 0 .77-.105-.315-.458-.84-.74-1.295-.986l1.155-.316c.14 0 .385.035.455-.036-.315-.457-.84-.668-1.295-.845v-.035c.245-.035.455-.281.665-.422.14-.106.385-.07.49-.246-.42-.388-.98-.458-1.505-.599.35-.211.63-.528.98-.74v-.07c-.525-.351-1.26-.351-1.925-.316.175-.211.28-.423.315-.67.105-.21.28-.421.35-.597-.56-.106-1.155.035-1.645.246l.28-1.197-.035-.035c-.56 0-1.12.317-1.575.634-.035-.388.105-.74.175-1.056-.455.035-.875.21-1.26.422-.525.282-1.085.74-1.015 1.408-.035.035-.14 0-.105.106.175.14.245.387.28.598-.14-.106-.28-.282-.315-.458-.105-.21-.35-.387-.63-.281.105.105.245.352.245.528-.315-.141-.28-.493-.525-.704-.105-.07-.315-.106-.42-.035l.21.387-.035.035c-.315-.14-.28-.528-.56-.704-.105-.07-.35-.07-.42 0 .07.14.245.317.245.493-.385-.141-.525-1.021-1.085-.704.105.105.28.246.28.387-.35-.07-.35-.458-.63-.634-.14-.035-.315-.105-.42-.035.105.106.175.211.175.352-.245-.035-.21-.281-.42-.422-.105-.176-.315-.247-.525-.176.035.105.175.21.14.317-.21-.106-.21-.458-.49-.493-.105.035-.21.105-.175.246.07.106.175.211.28.282.525-.07.77.493 1.295.387.21.246.49.352.84.352.21.176.49.317.805.282.245.422.805.035 1.05.492.175.176.63-.035.665.247h-.035c-.63-.317-1.12.21-1.575.493-.595.246-1.365.21-1.785.739-.07.528-.35 1.196-.035 1.69.07.034.21.07.14.21l.595.634c.175.14.49.106.735.07.595-.457 1.505-.704 2.205-.316-.035.246-.105.528-.42.633-.105.07-.07.317-.245.212-.175 0-.245.21-.245.351l.175.07a.17.17 0 0 1 0 .247c-.105.106-.28.106-.42.07-.14-.07-.28-.246-.21-.422.07 0 .14.106.21.07 0-.21.105-.351.105-.527l-.245-.035c0-.106.14-.212.105-.352-.175-.07-.42-.036-.595-.036l-.07.388-.49.035c-.105-.07-.035-.211-.175-.247l-1.155.247c-.21 0-.49.176-.35.422-.21.176-.49.845-.84.422-.28.317-.49.775-.77 1.162-.14.14-.035.422.14.458 0 .176-.07.352-.175.528-.14-.036-.28 0-.35.105l-.105 1.444c.035.14.21.105.315.175 0 .07.035.176-.035.212-1.505-.036-2.835.422-4.27.457-.105-.317-.245-.704-.56-.95.42-.387.525-.95.63-1.479.49.036.875-.105 1.19-.527.98.035 2.065.14 3.045-.07l-.035-.036c-.175-.14.035-.282.035-.422-.945.07-1.96.07-2.905 0 .14-.916-.77-1.409-1.26-1.972.105-.105.21-.176.35-.246 1.225-.106 2.24.633 3.5.458.735-.106 1.61-.599 1.785-1.409.14-.633.14-1.443-.315-1.935-.84-.95-2.24-.845-3.325-.564-.525.07-1.295.458-1.68-.105-.175-.247-.07-.634-.035-.88-.245-.035-.385.176-.525.317-.385.492-.28 1.267-.07 1.76-.385-.106-.595-.528-.7-.845-.21.387-.07.915.035 1.302.175.422.7.704 1.05.845-.315.07-.56.281-.805.422-.14-.07-.21-.281-.35-.422-.105-.176-.525-.106-.42-.352.245-.81-.49-1.267-1.015-1.76-.105-.669-.49-1.549-1.33-1.76-.665-.176-1.26-.106-1.68.422-.28.352-.35.704-.315 1.127-.35-.106-.665-.387-1.015-.423-.07.141-.07.317-.035.493.525.176 1.015.493 1.4.775h.91c.21-.036.35-.07.49-.247.175-.211.21-.422.105-.633-.105-.212-.21-.317-.49-.317s-.315.21-.315.387c0 .176.07.176.175.176.105-.035.035-.14.105-.211.035-.035.07-.106.14-.07.105.035.14.14.175.246.035.21-.105.387-.28.457-.245.106-.455.036-.63-.14-.245-.212-.21-.493-.105-.81.105-.282.245-.458.525-.598.385-.176.735-.07 1.05.176.455.352.665.915.385 1.443-.21.387-.56.633-.98.598v.774c1.26 1.514 1.575 2.922 1.575 4.224 0 2.957-1.96 6.055-5.67 6.653l-.49.528c1.33-.035 2.52-.528 3.605-1.232 1.155-.457 1.54 1.197 2.695.915.315-.07.63-.387.84-.668.63.105 1.33.176 2.03.105 1.19-.105 2.275-.457 3.43-.422 0 .246-.035.528.14.704 1.435.352 3.115.387 4.62.211.35.106.805.211 1.155 0 .805-.14 1.505.14 2.31.14.385.107.63-.105.84-.351 1.645-.422 3.255-.88 4.97-1.127.21.036.07.388.14.564.175.317.595.281.91.352 3.01.281 6.16 0 9.1-.493-1.365-.352-2.66-.669-3.85-1.162z" fill="#424241"/><path d="m107.43 15.262 2.17-.457c.175-.106.525-.035.595-.282-.875.141-1.715.352-2.59.423-.14.035-.105.21-.175.316zM107.43 15.79c1.015-.176 1.995-.352 2.94-.633.105-.07.315-.07.28-.247-1.085.352-2.31.423-3.395.67l.175.21zM110.65 15.614l.07-.105c-1.015.211-2.135.387-3.185.563l.07.211c1.05-.211 2.065-.352 3.045-.669zM107.64 14.488v.211c.63-.07 1.26-.211 1.855-.387l.07-.106-1.925.282zM126.505 16.67l.21.036v1.056l-.14.035v.14l.91.106v-.176l-.21-.07-.035-1.056s.105.035.175.105c.07.07.07.176.07.176l.14.036v-.352c-.385-.141-.875-.212-1.33-.212v.493l.14-.035.07-.282zM126.26 17.691h-.14l-.105-1.02h.175l-.07-.212-.91.106v.176h.14l.14 1.02-.14.036.035.176.875-.106v-.176zM122.34 17.832c0 .035-.105-.457-.105-.457s.28-.141.385.14c.07.212-.14.282-.28.317zm.77-.493c-.07-.281-.455-.281-.84-.21l-.735.21.035.141.105-.035.245.986-.105.14.07.141.735-.176-.07-.211h-.07l-.07-.352s.21 0 .245.035c.105.141.245.458.245.458l.56-.176-.455-.528c.035.035.21.035.105-.423zM124.44 18.043c-.21.07-.28-.105-.385-.457-.105-.317-.21-.634.035-.704.245-.07.385.281.455.563.07.317.14.528-.105.598zm.21-1.302a1.45 1.45 0 0 0-.945.106c-.315.14-.35.492-.315.81.035.21.21.386.42.492.28.106.63.07.91-.07.245-.141.35-.388.35-.704 0-.247-.14-.528-.42-.634zM101.34 17.586l-.14-.036c.07-.07.245-.105.21-.246-.315-.282-.735-.14-1.155-.176l-.07-.035c.175-.176.49-.07.7-.07.105.035.21-.071.14-.177-.28.07-.7.036-.98.176-.07.07-.035.141 0 .212.35.035.875-.106 1.155.14l-.07.036c-.455-.176-.98.105-1.4-.106l.07-.14c-.175-.142-.42-.177-.665-.142-.07.106.07.247-.035.388-.21 0-.105-.212-.14-.317h-.245c-.14.07 0 .176-.035.281.21.07.28.317.455.458-.07.106-.21.246-.28.106-.105.035-.245.07-.28.176.21.422.595.035.84-.036l.07.036c.14-.212.42-.212.63-.282.14.176-.14.14-.21.246-.07.07-.21-.07-.28.07 0 .071-.07.106 0 .177.28.105.49-.211.77-.176.21 0 0-.211.14-.282.105-.105.28-.176.385 0l-.105.106c-.07 0-.105-.141-.21-.106-.035.035-.035.07-.035.106-.035.176.175.14.28.211.14-.211.35-.387.49-.598zM98.75 9.49h3.115v3.484H98.75V9.49zm-.28 3.73h3.71V9.209h-3.71v4.013zM99.17 16.74c.14 0 .28-.175.385-.105.07 0 .035-.07.105-.07.315-.07.63-.282 1.015-.212 0 .036 0 .106-.07.106-.14.14-.525 0-.56.282.07.035.105.105.21.07.14-.176.35-.105.56-.14.35.105.07-.282.35-.317.175.035.455-.07.595.105 0 .035 0 .07-.07.106-.035.035-.105.035-.14-.036-.07-.035-.14 0-.175.07.035.212.21.177.315.247.21-.105.315-.352.35-.598-.14-.035-.28 0-.385-.106.105 0 .245-.07.21-.21-.35-.388-1.015-.107-1.505-.177l-.07-.07c.21-.212.7.035.84-.282 0-.035-.07-.035-.105-.035-.245.211-.735 0-.875.352.35.422.945 0 1.435.105.07 0 .175.07.14.141-.595-.035-1.295.106-1.89-.035.035-.07.07-.105.07-.176-.21-.14-.525-.14-.735-.176 0 .14.035.282-.035.387-.035.07-.105 0-.14-.035-.07-.07 0-.14.035-.211-.035-.176-.175-.035-.28-.106-.105.035-.035.176-.105.247.28.035.245.457.49.528-.07.07-.105.14-.21.176-.07-.036-.035-.106-.105-.106-.105.07-.28.035-.28.211.105.352.35-.035.63.07z" fill="#424241"/><path d="M98.645 15.403c.07.035.175 0 .245-.035.245.035.42-.246.63-.176.35-.211.77-.352 1.225-.317l-.07.176c-.175.07-.525-.035-.595.176 0 .176.175.106.28.141.175-.211.56 0 .735-.176-.14-.14.105-.176.175-.282.21.106.525-.14.63.141-.07.176-.21-.14-.35.035-.035.212.175.212.315.282a.682.682 0 0 0 .35-.598c-.105-.036-.245 0-.35-.106.07-.106.28-.035.245-.211-.42-.423-1.12-.035-1.68-.211v-.07c.245-.177.7.14.805-.212-.035-.07-.105-.035-.14-.035-.21.211-.735-.07-.84.352.035.105.14.105.245.14.455.036 1.05-.21 1.435.071-.7.035-1.47.14-2.135-.035l.035-.141a.81.81 0 0 0-.7-.14c0 .07.07.14.035.246-.035.035 0 .176-.14.14-.14-.035-.07-.176-.07-.316-.035-.106-.175-.036-.245-.07-.14 0-.105.175-.14.28.21.106.315.353.49.529-.175.281-.42-.106-.56.211-.035.07.105.106.14.211z" fill="#424241"/><path d="M98.225 19.874v-6.055h4.305c.07 2.007.035 3.661-1.715 4.506-.91.457-1.925.774-2.59 1.549zm0-10.912h4.235v4.54h-4.235v-4.54zm-.315 4.54h-4.2v-4.54h4.2v4.54zm0 6.372c-.98-1.056-2.17-1.092-3.325-2.112-.98-.88-.84-2.64-.84-3.943h4.2v6.055h-.035zm-4.725-3.59c-.945-1.514-.945-3.908 0-5.422v5.421zm9.87-5.457c.455.81.7 1.76.7 2.746 0 .985-.245 1.936-.7 2.745v-5.49zm-1.575 7.78c.7-.458 1.75-1.514 2.24-2.817.56-1.478.49-2.64.105-4.083-.245-.88-.805-1.584-.805-1.584V8.398h-1.925l-.665-.352-.385.106.42.246H95.74l.455-.21-.42-.106s-.49.246-.735.316h-1.925v1.83c-.91 1.374-1.33 3.486-.735 5.175.595 1.725 1.26 2.288 2.38 3.203 1.26.564 2.485 1.092 3.36 2.324.63-1.232 1.855-1.655 3.36-2.324z" fill="#424241"/><path d="M94.095 10.581c.245-.035.56-.07.77-.282.07.141.105 0 .21-.035.35-.07.665-.317 1.05-.176l-.035.035c-.035.247-.42.176-.63.212-.07.21.105.246.245.246.21-.176.595 0 .805-.211-.14-.141.105-.141.14-.282.21.106.525-.14.63.141l-.035.035c-.07 0-.14-.035-.21-.07-.035.035-.07.07-.035.105-.07.212.175.212.28.247.245-.106.28-.387.315-.634-.105-.07-.245.035-.315-.07.07-.035.28-.07.21-.247-.315-.316-.91-.176-1.33-.14-.07 0-.21 0-.21-.106.07-.106.21-.035.35-.035.175 0 .385 0 .315-.211l-.105-.036c-.175.212-.525.036-.735.212-.035.07-.035.21.035.246.455.106.98-.14 1.47.07.035.036 0 .07-.035.106-.665-.07-1.435.14-2.065-.07l.035-.141c-.21-.106-.455-.282-.735-.141 0 .106.14.317-.07.387-.245-.105 0-.246-.105-.387-.07 0-.21-.035-.315.035-.175.352.315.493.42.775l-.035.035c-.07.035-.175.105-.175-.035-.14-.036-.175.105-.28.105-.07.176.14.282.175.317zM95.6 16.002l1.33.845-.035.316-1.54-.985-.105-.247c0-.14.21 0 .35.07zm.07-.634c.42.282.875.528 1.295.845l-.035.281c-.49-.21-.945-.527-1.365-.88l.105-.246zm.35-.422.98.598-.035.282c-.385-.141-.77-.458-1.155-.67l.21-.21zm1.05-.211-.035.457c-.28-.07-.525-.281-.735-.457h.77zm-.28 3.132c-.49-.246-1.155-.598-1.33-1.232.455.247.91.563 1.365.845-.035.14 0 .282-.035.387zm-.315.317c.35.176.595.563.98.634.175-1.444.14-4.647.14-4.647h-2.03c-.455.036-.175.634-.49.845-.07.035-.245.106-.28-.035 0-.14.07-.246.175-.352.035-.14.105-.352 0-.458-.14-.105-.35-.14-.525-.105a.561.561 0 0 0-.245.316c-.07.212 0 .458.175.564 0 .14-.105.281-.21.387-.07.105-.035.281.07.387.21 1.091 1.12 2.218 2.24 2.464zM101.585 9.947c-.035-.14-.175-.176-.28-.14-.315.281-.35.844-.21 1.232 0 .246.63.528.245.704-.21-.141-.49-.282-.665-.528-.105-.247 0-.564.105-.775.07-.211-.035-.387.105-.563-.105-.035-.14-.106-.245-.176-.21-.035-.525 0-.665.176-.035.176.14.14.245.14.035.142-.245 0-.175.177l.175.07c-.105.106-.245.211-.385.211-.21-.07-.42-.176-.49-.422l.105-.07c0-.212-.21-.141-.315-.212 0 .106-.21.141-.175.282.245.211.42.598.735.81a.764.764 0 0 1-.175.105c-.07.035-.245.035-.245-.105-.21-.07-.105.176-.28.21.07.142-.035.177 0 .318l.14.035c.245-.247.56-.141.84-.317l.175.317-.245.07c-.21.141.175.282 0 .458-.105.105-.245-.035-.28-.141-.21-.07-.105.211-.28.211-.105.141.14.141.07.317.035.035.07.07.14.07.105-.246.42-.176.63-.281.105 0 .28-.211.14-.317.105 0 .175-.07.245 0-.105.387.42.282.42.563-.035 0-.07-.105-.14-.07-.105.14-.14.317 0 .457.175-.07.455-.246.49-.492.035-.212-.175-.247-.28-.352 0-.07.035-.176.035-.247.105.07.175.176.315.141.175-.035.21-.211.175-.352-.35-.352-.56-.81-.42-1.338.035-.07.07-.281.21-.21.175.175-.105.351-.07.527 0 .141.14.176.21.282.07.035.21.07.21-.035-.21-.141-.175-.458-.14-.74z" fill="#424241"/><path d="M97.07 11.601c-.07 0-.035.106-.035.141.035.141.21.141.315.176.245-.14.28-.387.35-.598-.105-.035-.28.035-.35-.07.07 0 .21-.106.21-.212-.35-.492-1.015-.105-1.54-.246.14-.246.56 0 .735-.211.035-.035 0-.141-.035-.141-.245.14-.595.07-.84.211-.07.106-.07.247.07.282.49.105 1.05-.211 1.435.105l-.035.07c-.665-.175-1.365.106-1.96-.035-.175-.035.035-.105 0-.21h-.14c-.14-.212-.455-.106-.63-.141-.14.105.105.176 0 .316 0 .07-.105.141-.175.035-.105-.07 0-.175 0-.281-.07-.14-.175 0-.28-.07-.07.035-.105.14-.105.21 0 .106.105.141.175.177.035.176.315.281.245.457-.035.035-.175.141-.21 0-.14-.035-.175.106-.28.141-.035.14.07.176.14.246.28-.07.595-.07.84-.246.07.07.07-.035.14-.07.35-.07.7-.282 1.085-.212-.07.036 0 .141-.07.141-.14 0-.28.176-.42.07-.105-.034-.14.071-.14.177-.035.14.14.07.245.105.175-.176.56-.14.84-.105-.175.176-.525.035-.77.21a.186.186 0 0 0 .07.247c.455.106.98-.14 1.47.07.035.036 0 .071 0 .106-.7-.14-1.4.106-2.1-.07.035-.035.07-.106.035-.176h-.07c-.14-.211-.42-.07-.63-.106-.035.141.105.282-.035.388-.21-.036-.105-.212-.175-.352-.07 0-.175-.07-.28 0a.39.39 0 0 0 0 .281c.21.07.245.317.455.423l-.07.105c-.07.07-.175 0-.245-.035-.105.07-.315.105-.245.281.07.176.28.07.42.07.245 0 .42-.21.595-.14a2.61 2.61 0 0 1 1.155-.352c.14 0 .035.106.035.176-.21.035-.385.07-.595.07 0 .07-.105.141 0 .212.245.105.525-.07.84-.036.385.036.035-.316.35-.387.21.07.42-.07.595.106 0 .246-.175 0-.28.035-.035 0-.035.07-.035.106-.035.176.175.14.28.21.21-.14.28-.386.315-.633-.105.036-.245.036-.315-.07.07-.035.28-.106.21-.246-.385-.352-.98-.106-1.47-.141l-.07-.07.07-.036c.175-.105.595.07.665-.211 0-.106-.14-.035-.175-.035 0-.07.035-.141 0-.176.14-.352.525-.106.77-.106.035.035.07.106.035.14-.245.036-.28-.105-.385-.07zM119.855 11.46c0 .071.07.071.14.106.42-.527.49-1.267.49-1.97-.07-.529-.14-1.092-.595-1.409-.07 0-.105.07-.105.141.665.88.42 2.183.07 3.133zM117.405 7.589l.245.176c-.07.105-.21.105-.315.105-.035-.035.07-.14.07-.281zm-.595.176c.035-.07.035-.176.14-.247l.035.282-.175-.035zm.14-.528c-.28 0-.35.317-.525.457.07.176.315.282.525.317.385.106.805.035 1.05-.246-.315-.176-.595-.599-1.05-.528z" fill="#424241"/><path fill-rule="evenodd" clip-rule="evenodd" d="M105.715 33.426h3.43l-1.715-5.104-1.715 5.104zm8.54 3.625c.35.88.945 1.303 1.82 1.303 1.05 0 1.89-.352 1.785-1.866v-4.154l-3.535-5.737c-.543-.833-1.226-.916-1.877-.995a7.117 7.117 0 0 1-.433-.061v-.634h7.42v.634c-.77 0-1.085.246-1.085.598 0 .286.208.688.417 1.093l.143.28 1.995 3.415 2.24-3.38c.21-.352.42-.774.42-1.232 0-.563-.56-.774-1.33-.774v-.634h5.04v.634c-1.155.105-1.68.246-2.52 1.514l-3.29 5.28v4.153c0 1.514.77 1.866 2.135 1.866v.633h-14.945v-.598h1.085c.455 0 .805-.282.805-.74 0-.316-.105-.668-.21-.95l-.91-2.041h-4.165l-.7 1.724-.032.098c-.124.37-.213.637-.213.994 0 .493.805.88 1.995.88v.598h-5.53v-.598c1.19-.07 1.96-.387 2.52-1.866l3.955-11.334 2.555-.67 4.445 12.567zm-65.8 1.971h-.385l-.175-4.224h.56c.35 1.971 2.275 3.555 4.2 3.555 1.435 0 2.625-.88 2.625-1.936 0-1.43-1.516-2.084-3.208-2.815-2.14-.924-4.562-1.97-4.562-4.858 0-3.098 2.555-4.154 5.005-4.154 1.253 0 1.94.347 2.45.606.304.152.545.274.805.274.28 0 .35-.176.455-.492h.595v3.801h-.42c-.56-1.795-1.855-3.203-3.675-3.203-1.26 0-2.345.563-2.345 1.76 0 1.458 1.555 2.089 3.264 2.782 2.086.845 4.401 1.784 4.401 4.434 0 3.309-2.415 4.752-4.375 4.752-1.999 0-2.964-.42-3.612-.7-.328-.143-.574-.25-.833-.25-.42 0-.665.316-.77.668zm-37.835-.668v.598H2.185v-.598c1.4 0 2.31-.352 2.31-1.866V26.245c-2.835 0-3.5.493-3.78 2.745H.05v-4.083h12.67v4.083h-.665c-.28-2.217-.945-2.745-3.78-2.745v10.243c0 1.549.91 1.866 2.345 1.866zm12.285-1.866v-4.26H18.11v4.26c0 1.373.7 1.83 1.89 1.866v.598h-7.42v-.598c1.365 0 1.89-.352 1.89-1.866v-9.117c0-1.549-.385-1.654-1.295-1.865v-.599H20v.599c-1.155.07-1.89.492-1.89 1.865v3.696h4.76v-3.696c0-1.373-.7-1.83-1.89-1.865v-.599h7.455v.599c-1.365 0-1.89.352-1.89 1.865v9.117c0 1.549.525 1.866 1.89 1.866v.598h-7.42v-.598c1.155-.07 1.89-.493 1.89-1.866zm17.885 2.464v-4.154h-.49c-.77 2.992-1.715 3.168-3.01 3.168h-1.715c-.84 0-.98-.281-.98-1.02v-4.752c.257.004.503.003.739.003 1.692-.003 2.813-.005 2.936 1.757h.525v-4.47h-.525c-.128 1.61-1.427 1.6-3.175 1.586h-.001c-.163-.002-.33-.003-.499-.003v-5.139H36.8c2.24 0 3.185.88 3.395 2.992h.42v-3.978H29.1v.599c1.365 0 1.89.317 1.89 1.865v9.117c0 1.514-.525 1.866-1.89 1.866v.598h11.69v-.035zm109.48 0v-.563c-1.155 0-1.61-.74-1.61-2.253v-8.483c0-1.514.315-2.112 1.4-2.112v-.634h-6.51v.634c1.12 0 1.435.598 1.435 2.112v8.483c0 1.514-.455 2.253-1.645 2.253v.563h6.93zm13.79-11.264-4.34 11.264h-1.05l-4.27-10.666v8.061c0 1.514.07 1.76 1.89 2.042v.563h-4.97v-.563c1.575-.247 1.855-.528 1.855-2.042v-8.553c0-1.514-.525-2.253-1.855-2.253v-.634h5.705l3.36 9.117 3.43-9.117h5.705v.634c-1.575.281-1.89.387-1.89 2.253v8.342c0 1.514.14 2.077 1.89 2.253v.563h-7.35v-.563c1.575-.176 1.89-.563 1.89-2.253v-8.448zm18.095 11.264v-4.154h-.49c-.77 2.992-1.715 3.168-3.01 3.168h-1.715c-.84 0-.98-.281-.98-1.02v-4.752c.257.004.503.003.739.003 1.692-.003 2.813-.005 2.936 1.757h.525v-4.47h-.525c-.128 1.61-1.427 1.6-3.175 1.586h-.001c-.163-.002-.329-.003-.499-.003v-5.139h2.205c2.24 0 3.185.88 3.395 2.992h.42v-3.978h-11.515v.599c1.365 0 1.89.317 1.89 1.865v9.152c0 1.514-.525 1.866-1.89 1.866v.563h11.69v-.035zm2.1.07h-.385l-.175-4.224h.56c.35 1.971 2.275 3.555 4.2 3.555 1.435 0 2.625-.88 2.625-1.936 0-1.43-1.509-2.084-3.194-2.815-2.13-.924-4.541-1.97-4.541-4.858 0-3.098 2.52-4.154 4.97-4.154 1.253 0 1.94.347 2.451.606.303.152.544.274.804.274.28 0 .35-.176.455-.492h.595v3.801h-.42c-.56-1.795-1.855-3.203-3.675-3.203-1.26 0-2.345.563-2.345 1.76 0 1.458 1.555 2.089 3.264 2.782 2.086.845 4.401 1.784 4.401 4.434 0 3.309-2.415 4.752-4.375 4.752-1.535 0-2.884-.46-3.703-.74-.358-.123-.614-.21-.742-.21-.42 0-.665.316-.77.668zm-43.435-.07v-.598c-1.435 0-2.345-.317-2.345-1.866V26.245c2.835 0 3.5.528 3.78 2.745h.665v-4.083h-12.67v4.083h.665c.28-2.252.945-2.745 3.78-2.745v10.243c0 1.514-.875 1.866-2.31 1.866v.598h8.435zM74.74 26.597c-.665-.81-.945-1.02-1.715-1.02-1.365 0-2.03.316-1.995 1.935v7.427c0 3.274-1.855 4.506-5.32 4.506-3.185 0-5.495-1.126-5.495-4.47v-7.463c0-1.549-.525-1.865-1.89-1.865v-.634h7.35v.634c-1.365 0-1.89.352-1.89 1.865v7.709c0 2.077 1.61 2.71 2.94 2.71 2.1 0 2.94-.985 2.94-3.59v-6.864c0-1.232-.595-1.83-1.855-1.866v-.633h10.045l6.44 8.659h.035v-5.878c0-1.514-.28-1.866-1.68-2.148v-.633h4.795v.633c-1.4.106-1.89.634-1.89 2.148v11.228H83.91l-7.875-10.313H76v7.814c0 1.514.7 1.866 2.24 1.866v.633h-5.635v-.633c1.435 0 2.135-.352 2.135-1.866v-9.891zm18.935-.669c3.675-.422 5.145 2.464 5.145 5.667 0 4.647-1.225 6.301-3.85 6.301-.875 0-1.295-.317-1.295-1.443V25.928zm-3.605 10.56c0 1.514-.525 1.866-1.89 1.866v.633h6.965c4.375 0 7.35-1.83 7.35-7.005 0-5.21-2.975-7.04-7.35-7.04H88.18v.634c1.365 0 1.89.317 1.89 1.866v9.046z" fill="#424241"/></svg>