<?xml version="1.0" encoding="utf-8"?>
<!-- Generator: Adobe Illustrator 26.0.1, SVG Export Plug-In . SVG Version: 6.00 Build 0)  -->
<svg version="1.1" id="Слой_1" xmlns="http://www.w3.org/2000/svg" xmlns:xlink="http://www.w3.org/1999/xlink" x="0px" y="0px"
	 viewBox="0 0 231.7 55" style="enable-background:new 0 0 231.7 55;" xml:space="preserve">
<style type="text/css">
	.st0{fill:#FF5043;}
	.st1{fill:#F1F2EC;}
</style>
<path class="st0" d="M231.7-142.9v5.6h-27.1v-5.6H231.7z"/>
<path class="st0" d="M230.9-132.6l-2.1,5.2l-25.1-10.3l2.1-5.2L230.9-132.6z"/>
<path class="st0" d="M225.6-123l-3.9,4l-19.6-18.7l3.9-4L225.6-123z"/>
<path class="st0" d="M217-116l-5.1,2.2l-10.5-25l5.1-2.2L217-116z"/>
<path class="st0" d="M221.8-161.4l3.9,3.9l-19.2,19.2l-3.9-3.9L221.8-161.4z"/>
<path class="st0" d="M228.6-152.9l2.3,5.1l-24.7,11.1l-2.3-5.1L228.6-152.9z"/>
<path class="st0" d="M212.5-166.3l5.1,2.2l-10.9,24.8l-5.1-2.2L212.5-166.3z"/>
<path class="st0" d="M201.9-167.2h5.6v27.1h-5.6V-167.2z"/>
<path class="st0" d="M201.9-140.1h5.6v27.1h-5.6V-140.1z"/>
<circle class="st0" cx="204.6" cy="-140.2" r="9.3"/>
<path class="st1" d="M68.7-149.9h-8.9l-6,11.2l-6-11.2h-8.9v19.7H46v-9.4l5.3,9.4h4.8l5.3-9.4v9.4h7.3V-149.9z M88.3-130.2h8
	l-8.1-19.7H77.4l-8.1,19.7h8l1.3-3.5h8.3L88.3-130.2L88.3-130.2z M80.5-138.8l2.3-5.7l2.3,5.7H80.5L80.5-138.8z M117.5-144.3v-5.6
	H96.8v19.7h20.7v-5.6h-13.4v-1.8h13.4v-4.8h-13.4v-1.8L117.5-144.3L117.5-144.3z M118.1-137.2c0,5.8,4.5,7.2,12.5,7.2
	c8,0,12.5-1.4,12.5-6.8c0-5.1-4.8-5.7-12.5-6c-4.2-0.2-4.9-0.1-4.9-0.9c0-0.8,0.7-0.9,4.1-0.9c3.6,0,5.2,0.2,5.2,1.3h7.3
	c0-5-4.3-6.9-11.9-6.9c-7.7,0-11.9,1.9-11.9,6.2c0,4.6,3.4,6,12.2,6.3c4.6,0.1,5.2,0.3,5.2,1.1c0,0.7-0.6,1-4.9,1
	c-4.6,0-5.5-0.6-5.5-1.6C125.3-137.2,118.1-137.2,118.1-137.2z M167.1-149.9h-24v6.2h8.4v13.5h7.3v-13.5h8.4V-149.9z M190.8-142.4
	c0-4.4-3-7.5-7.5-7.5h-15.4v19.7h7.3v-4.6h4.3l2.7,4.6h8.6l-3.5-5.6C189.5-137.2,190.8-139.5,190.8-142.4L190.8-142.4z M175.2-143.7
	h6.7c0.7,0,1.6,0,1.6,1.4c0,1.3-0.9,1.3-1.6,1.3h-6.7V-143.7z M203.7-130c8.6,0,12.3-3.3,12.3-10.1c0-6.8-3.7-10.1-12.3-10.1
	c-8.6,0-12.3,3.3-12.3,10.1C191.4-133.3,195.1-130,203.7-130z M203.7-136.1c-4.3,0-5-1.9-5-4c0-2.1,0.7-3.9,5-3.9s5,1.9,5,3.9
	C208.7-138,207.9-136.1,203.7-136.1z"/>
<g>
	<path class="st1" d="M10.6,34.4v4.7h9v5.3h-9v8.9H5V29h14.7v5.3C19.7,34.4,10.6,34.4,10.6,34.4z"/>
	<path class="st1" d="M40.5,36v17.3h-5.2v-1.7c-1.1,1.3-2.8,2.2-5.2,2.2c-4.6,0-8.3-3.9-8.3-9.1s3.7-9.1,8.3-9.1
		c2.3,0,4.1,0.8,5.2,2.2V36C35.3,36,40.5,36,40.5,36z M35.3,44.6c0-2.5-1.8-4.2-4.1-4.2s-4.1,1.7-4.1,4.2s1.8,4.2,4.1,4.2
		S35.3,47.2,35.3,44.6z"/>
	<path class="st1" d="M63,44.6c0,5.2-3.7,9.1-8.3,9.1c-2.3,0-4.1-0.8-5.2-2.2v1.7h-5.2V29h5.2v8.5c1.1-1.3,2.8-2.2,5.2-2.2
		C59.2,35.5,63,39.4,63,44.6z M57.8,44.6c0-2.5-1.8-4.2-4.1-4.2c-2.4,0-4.1,1.7-4.1,4.2s1.8,4.2,4.1,4.2S57.8,47.2,57.8,44.6z"/>
	<path class="st1" d="M80.3,47.9v5.3H66.1V29h5.6v18.9H80.3z"/>
	<path class="st1" d="M100.1,36v17.3h-5.2v-1.7c-1.1,1.3-2.8,2.2-5.2,2.2c-4.6,0-8.3-3.9-8.3-9.1s3.7-9.1,8.3-9.1
		c2.3,0,4.1,0.8,5.2,2.2V36C94.9,36,100.1,36,100.1,36z M94.9,44.6c0-2.5-1.8-4.2-4.1-4.2c-2.3,0-4.1,1.7-4.1,4.2s1.8,4.2,4.1,4.2
		C93.2,48.8,94.9,47.2,94.9,44.6z"/>
	<path class="st1" d="M122.5,44.6c0,5.2-3.7,9.1-8.3,9.1c-2.3,0-4.1-0.8-5.2-2.2v1.7h-5.2V29h5.2v8.5c1.1-1.3,2.8-2.2,5.2-2.2
		C118.8,35.5,122.5,39.4,122.5,44.6z M117.3,44.6c0-2.5-1.8-4.2-4.1-4.2c-2.4,0-4.1,1.7-4.1,4.2s1.8,4.2,4.1,4.2
		C115.6,48.8,117.3,47.2,117.3,44.6z"/>
	<g>
		<path class="st1" d="M88.5,15.6c0,7.4-5.2,11.9-11.9,11.9c-7.6,0-13.1-5.6-13.1-12.6S69,2.3,76.1,2.3c4.6,0,8.5,2.3,10.5,5.6
			L82,10.6c-1-1.7-3.2-2.8-6-2.8c-4.1,0-7.1,3-7.1,7.2c0,4.1,2.9,7.1,7.6,7.1c3.2,0,5.3-1.4,6.2-3.7h-6.5v-4.8h12.2V15.6z"/>
		<path class="st1" d="M109.1,2.7V27h-5.2v-1.7c-1.1,1.3-2.8,2.2-5.2,2.2c-4.6,0-8.3-3.9-8.3-9.1s3.7-9.1,8.3-9.1
			c2.3,0,4.1,0.8,5.2,2.2V2.9h5.2V2.7z M104,18.4c0-2.5-1.8-4.2-4.1-4.2c-2.4,0-4.1,1.7-4.1,4.2s1.8,4.2,4.1,4.2S104,20.9,104,18.4z
			"/>
		<path class="st1" d="M130.7,9.7V27h-5.2v-1.7c-1.1,1.3-2.8,2.2-5.2,2.2c-4.6,0-8.3-3.9-8.3-9.1s3.7-9.1,8.3-9.1
			c2.3,0,4.1,0.8,5.2,2.2V9.7C125.4,9.7,130.7,9.7,130.7,9.7z M125.4,18.4c0-2.5-1.8-4.2-4.1-4.2c-2.4,0-4.1,1.7-4.1,4.2
			s1.8,4.2,4.1,4.2C123.8,22.6,125.4,20.9,125.4,18.4z"/>
		<path class="st1" d="M151.1,16.3V27h-5.2v-9.9c0-2.2-1.4-3.2-3-3.2c-1.9,0-3.2,1.1-3.2,3.6V27h-5.2V9.7h5.2v1.7
			c0.9-1.3,2.7-2.2,5-2.2C148.1,9.2,151.1,11.6,151.1,16.3z M144.9,7.3h-5l2.8-4.8h6.2L144.9,7.3z"/>
		<path class="st1" d="M168,21.8c0,3.9-3.4,5.7-7.2,5.7c-3.4,0-6.1-1.3-7.5-4.1l4.4-2.5c0.5,1.3,1.4,2,2.9,2c1.3,0,1.9-0.4,1.9-1
			c0-1.9-8.5-0.9-8.5-6.9c0-3.8,3.2-5.7,6.7-5.7c2.8,0,5.3,1.3,6.7,3.7l-4.4,2.4c-0.5-0.9-1.1-1.5-2.3-1.5c-0.9,0-1.4,0.4-1.4,1
			C159.5,16.7,168,15.4,168,21.8z"/>
		<path class="st1" d="M181.4,27l-5.6-7.6V27h-5.2V2.7h5.2v14.5l5.2-7.6h6.1l-6.4,8.6l6.5,8.6h-5.8V27z"/>
	</g>
</g>
<g>
	<g>
		<path class="st1" d="M43.4-71.1c0,2.6-2.1,4.8-4.9,4.8h-2v4.3h-3.2v-13.9h5.2C41.3-75.9,43.4-73.8,43.4-71.1z M40.3-71.1
			c0-1-0.7-1.8-1.7-1.8h-2.1v3.6h2.1C39.5-69.3,40.3-70.1,40.3-71.1z"/>
		<path class="st1" d="M50.7-72.1v3.4c-1.2-0.2-3,0.3-3,2.3v4.4h-3v-9.9h3v1.8C48.1-71.5,49.4-72.1,50.7-72.1z"/>
		<path class="st1" d="M61.9-71.9v9.9h-3v-1c-0.7,0.8-1.6,1.2-3,1.2c-2.6,0-4.7-2.3-4.7-5.2s2.1-5.2,4.7-5.2c1.3,0,2.3,0.5,3,1.2
			v-0.9H61.9z M58.9-67c0-1.5-1-2.4-2.4-2.4s-2.4,0.9-2.4,2.4s1,2.4,2.4,2.4S58.9-65.5,58.9-67z"/>
		<path class="st1" d="M63.6-67c0-3,2.2-5.2,5.2-5.2c1.9,0,3.6,1,4.5,2.5l-2.6,1.5c-0.3-0.7-1-1.1-1.9-1.1c-1.3,0-2.2,0.9-2.2,2.3
			c0,1.4,1,2.3,2.2,2.3c0.9,0,1.6-0.4,1.9-1.1l2.6,1.5c-0.9,1.5-2.5,2.6-4.5,2.6C65.8-61.7,63.6-64,63.6-67z"/>
		<path class="st1" d="M73.8-67c0-3,2.3-5.2,5.2-5.2c2.9,0,5.2,2.3,5.2,5.2c0,2.9-2.3,5.2-5.2,5.2C76.1-61.7,73.8-64,73.8-67z
			 M81.3-67c0-1.4-1-2.3-2.3-2.3s-2.3,0.9-2.3,2.3c0,1.4,1,2.3,2.3,2.3C80.3-64.6,81.3-65.6,81.3-67z"/>
		<path class="st1" d="M99.7-71.9L96.5-62h-2.8l-1.6-5.3L90.5-62h-2.8l-3.2-9.9h3.2l1.4,5.3l1.5-5.3h2.8l1.5,5.3l1.4-5.3
			C96.3-71.9,99.7-71.9,99.7-71.9z"/>
		<path class="st1" d="M110.3-68.1v6.1h-3v-5.6c0-1.2-0.8-1.8-1.7-1.8c-1.1,0-1.8,0.6-1.8,2v5.4h-3v-9.9h3v0.9
			c0.5-0.7,1.5-1.2,2.8-1.2C108.6-72.2,110.3-70.8,110.3-68.1z"/>
		<path class="st1" d="M112.1-74.6c0-1,0.8-1.8,1.8-1.8s1.8,0.8,1.8,1.8s-0.8,1.8-1.8,1.8S112.1-73.6,112.1-74.6z M112.4-71.9h3v9.9
			h-3C112.4-62,112.4-71.9,112.4-71.9z"/>
		<path class="st1" d="M127.7-71.9v9.9h-3v-1c-0.7,0.8-1.6,1.2-3,1.2c-2.6,0-4.7-2.3-4.7-5.2s2.1-5.2,4.7-5.2c1.3,0,2.3,0.5,3,1.2
			v-0.9H127.7z M124.7-67c0-1.5-1-2.4-2.4-2.4s-2.4,0.9-2.4,2.4s1,2.4,2.4,2.4S124.7-65.5,124.7-67z"/>
	</g>
	<g>
		<g>
			<path class="st1" d="M37.7-55.9v3.7h7.1v4.2h-7.1v7h-4.4v-19.1h11.6v4.2C44.9-55.9,37.7-55.9,37.7-55.9z"/>
			<path class="st1" d="M61.3-54.6V-41h-4.1v-1.3c-0.9,1-2.2,1.7-4.1,1.7c-3.6,0-6.5-3.1-6.5-7.2s2.9-7.2,6.5-7.2
				c1.8,0,3.2,0.6,4.1,1.7v-1.3C57.2-54.6,61.3-54.6,61.3-54.6z M57.2-47.8c0-2-1.4-3.3-3.2-3.3s-3.2,1.3-3.2,3.3s1.4,3.3,3.2,3.3
				S57.2-45.8,57.2-47.8z"/>
			<path class="st1" d="M79-47.8c0,4.1-2.9,7.2-6.5,7.2c-1.8,0-3.2-0.6-4.1-1.7v1.3h-4.1v-19.1h4.1v6.7c0.9-1,2.2-1.7,4.1-1.7
				C76-55,79-51.9,79-47.8z M74.9-47.8c0-2-1.4-3.3-3.2-3.3c-1.9,0-3.2,1.3-3.2,3.3s1.4,3.3,3.2,3.3S74.9-45.8,74.9-47.8z"/>
			<path class="st1" d="M92.6-45.2v4.2H81.4v-19.1h4.4v14.9H92.6z"/>
			<path class="st1" d="M108.2-54.6V-41h-4.1v-1.3c-0.9,1-2.2,1.7-4.1,1.7c-3.6,0-6.5-3.1-6.5-7.2S96.4-55,100-55
				c1.8,0,3.2,0.6,4.1,1.7v-1.3C104.1-54.6,108.2-54.6,108.2-54.6z M104.1-47.8c0-2-1.4-3.3-3.2-3.3s-3.2,1.3-3.2,3.3
				s1.4,3.3,3.2,3.3S104.1-45.8,104.1-47.8z"/>
			<path class="st1" d="M125.8-47.8c0,4.1-2.9,7.2-6.5,7.2c-1.8,0-3.2-0.6-4.1-1.7v1.3h-4.1v-19.1h4.1v6.7c0.9-1,2.2-1.7,4.1-1.7
				C122.9-55,125.8-51.9,125.8-47.8z M121.7-47.8c0-2-1.4-3.3-3.2-3.3c-1.9,0-3.2,1.3-3.2,3.3s1.4,3.3,3.2,3.3
				C120.4-44.5,121.7-45.8,121.7-47.8z"/>
			<path class="st1" d="M154-50c0,5.8-4.1,9.4-9.4,9.4c-6,0-10.3-4.4-10.3-9.9s4.4-9.9,10-9.9c3.6,0,6.7,1.8,8.3,4.4l-3.7,2.1
				c-0.8-1.3-2.5-2.2-4.7-2.2c-3.2,0-5.6,2.4-5.6,5.7c0,3.2,2.3,5.6,6,5.6c2.5,0,4.2-1.1,4.9-2.9h-5.1v-3.8h9.6V-50z"/>
			<path class="st1" d="M170.2-60.1V-41h-4.1v-1.3c-0.9,1-2.2,1.7-4.1,1.7c-3.6,0-6.5-3.1-6.5-7.2s2.9-7.2,6.5-7.2
				c1.8,0,3.2,0.6,4.1,1.7V-60L170.2-60.1L170.2-60.1z M166.2-47.8c0-2-1.4-3.3-3.2-3.3c-1.9,0-3.2,1.3-3.2,3.3s1.4,3.3,3.2,3.3
				S166.2-45.8,166.2-47.8z"/>
			<path class="st1" d="M187.2-54.6V-41h-4.1v-1.3c-0.9,1-2.2,1.7-4.1,1.7c-3.6,0-6.5-3.1-6.5-7.2s2.9-7.2,6.5-7.2
				c1.8,0,3.2,0.6,4.1,1.7v-1.3C183.1-54.6,187.2-54.6,187.2-54.6z M183.1-47.8c0-2-1.4-3.3-3.2-3.3c-1.9,0-3.2,1.3-3.2,3.3
				s1.4,3.3,3.2,3.3C181.8-44.5,183.1-45.8,183.1-47.8z"/>
			<path class="st1" d="M203.3-49.4v8.4h-4.1v-7.8c0-1.7-1.1-2.5-2.4-2.5c-1.5,0-2.5,0.9-2.5,2.8v7.5h-4.1v-13.6h4.1v1.3
				c0.7-1,2.1-1.7,3.9-1.7C200.9-55,203.3-53.1,203.3-49.4z M198.4-56.5h-3.9l2.2-3.8h4.9L198.4-56.5z"/>
			<path class="st1" d="M216.6-45.1c0,3.1-2.7,4.5-5.7,4.5c-2.7,0-4.8-1-5.9-3.2l3.5-2c0.4,1,1.1,1.6,2.3,1.6c1,0,1.5-0.3,1.5-0.8
				c0-1.5-6.7-0.7-6.7-5.4c0-3,2.5-4.5,5.3-4.5c2.2,0,4.2,1,5.3,2.9l-3.5,1.9c-0.4-0.7-0.9-1.2-1.8-1.2c-0.7,0-1.1,0.3-1.1,0.8
				C209.9-49.1,216.6-50.1,216.6-45.1z"/>
			<path class="st1" d="M227.1-41l-4.4-6v6h-4.1v-19.1h4.1v11.4l4.1-6h4.8l-5,6.8l5.1,6.8h-4.6V-41z"/>
		</g>
	</g>
</g>
</svg>
