<?xml version="1.0" encoding="UTF-8" standalone="no"?>
<svg
   inkscape:version="1.3 (0e150ed6c4, 2023-07-21)"
   sodipodi:docname="Logo Pracowni.svg"
   viewBox="0 0 1600 500"
   height="500"
   width="1600"
   xml:space="preserve"
   id="svg2"
   version="1.1"
   inkscape:export-filename="Logo Pracowni.png"
   inkscape:export-xdpi="96"
   inkscape:export-ydpi="96"
   xmlns:inkscape="http://www.inkscape.org/namespaces/inkscape"
   xmlns:sodipodi="http://sodipodi.sourceforge.net/DTD/sodipodi-0.dtd"
   xmlns="http://www.w3.org/2000/svg"
   xmlns:svg="http://www.w3.org/2000/svg"
   xmlns:rdf="http://www.w3.org/1999/02/22-rdf-syntax-ns#"
   xmlns:cc="http://creativecommons.org/ns#"
   xmlns:dc="http://purl.org/dc/elements/1.1/"><metadata
     id="metadata8"><rdf:RDF><cc:Work
         rdf:about=""><dc:format>image/svg+xml</dc:format><dc:type
           rdf:resource="http://purl.org/dc/dcmitype/StillImage" /></cc:Work></rdf:RDF></metadata><defs
     id="defs6"><clipPath
       id="clipPath18"
       clipPathUnits="userSpaceOnUse"><path
         inkscape:connector-curvature="0"
         id="path16"
         d="M 0,341.882 H 832.279 V 0 H 0 Z" /></clipPath></defs><sodipodi:namedview
     inkscape:document-rotation="0"
     inkscape:current-layer="g10"
     inkscape:window-maximized="1"
     inkscape:window-y="-8"
     inkscape:window-x="-8"
     inkscape:cy="176.31911"
     inkscape:cx="852.31746"
     inkscape:zoom="0.768493"
     inkscape:guide-bbox="true"
     showguides="true"
     showgrid="false"
     id="namedview4"
     inkscape:window-height="1377"
     inkscape:window-width="3440"
     inkscape:pageshadow="2"
     inkscape:pageopacity="0"
     guidetolerance="10"
     gridtolerance="10"
     objecttolerance="10"
     borderopacity="1"
     bordercolor="#666666"
     pagecolor="#ffffff"
     inkscape:showpageshadow="2"
     inkscape:pagecheckerboard="0"
     inkscape:deskcolor="#d1d1d1"><sodipodi:guide
       inkscape:locked="false"
       id="guide4539"
       orientation="0,1"
       position="-125.13649,73.609703" /><sodipodi:guide
       inkscape:locked="false"
       id="guide4541"
       orientation="1,0"
       position="1526.0211,169.30232" /></sodipodi:namedview><g
     transform="matrix(1.3333333,0,0,-1.3333333,0,499.99998)"
     inkscape:label="Orange Fanlab LOGO CMYK BialeTloNew"
     inkscape:groupmode="layer"
     id="g10"><g
   id="g2"
   transform="translate(66,-12)"><g
     id="g20"
     transform="translate(95.3333,258.9311)"
     style="fill:#000080;fill-opacity:1"><path
       d="m 0,0 v -111.84 l 31.875,-18.402 v 26.245 c -10.273,12.136 -17.239,28.171 -17.239,41.978 0,20.165 14.852,27.935 33.174,17.358 18.321,-10.578 33.172,-35.499 33.172,-55.663 0,-13.807 -6.964,-21.8 -17.238,-22.073 v -26.246 l 31.875,-18.402 v 111.839 z"
       style="fill:#000080;fill-opacity:1;fill-rule:nonzero;stroke:none"
       id="path22"
       inkscape:connector-curvature="0" /></g><g
     id="g24"
     transform="translate(199.3333,203.7251)"
     style="fill:#ff0000;fill-opacity:1"><path
       d="m 0,0 v -111.839 l 31.875,18.402 v 26.246 c -10.273,0.273 -17.239,8.266 -17.239,22.073 0,20.164 14.852,45.085 33.174,55.663 18.321,10.577 33.172,2.807 33.172,-17.357 0,-13.808 -6.964,-29.843 -17.238,-41.979 v -26.245 l 31.875,18.402 v 111.84 z"
       style="fill:#ff0000;fill-opacity:1;fill-rule:nonzero;stroke:none"
       id="path26"
       inkscape:connector-curvature="0" /></g><g
     id="g28"
     transform="translate(195.1429,321.895)"
     style="fill:#ffff00;fill-opacity:1"><path
       d="m 0,0 -31.202,-18.061 22.96,-13.291 c 15.044,1.984 31.346,-0.164 42.959,-6.522 18.131,-9.927 17.953,-26.341 -0.395,-36.661 -18.348,-10.32 -47.921,-10.64 -66.051,-0.712 -13,7.118 -16.584,17.57 -10.81,26.721 L -63.186,-36.575 -95.96,-55.547 0,-111.094 95.959,-55.547 Z"
       style="fill:#ffff00;fill-opacity:1;fill-rule:nonzero;stroke:none"
       id="path30"
       inkscape:connector-curvature="0" /></g></g><g
   id="g1"
   transform="matrix(0.87298073,0,0,0.87298073,59.193897,-9.453898)"
   style="fill:#000000;fill-opacity:1"><g
     transform="translate(371.5491,244.4204)"
     id="g32"
     style="fill:#000000;fill-opacity:1"><path
       inkscape:connector-curvature="0"
       id="path34"
       style="fill:#000000;fill-opacity:1;fill-rule:nonzero;stroke:none"
       d="M 0,0 H 53.075 V -13.99 H 16.599 v -17.487 h 31.612 v -12.93 H 16.599 V -75.673 H 0 Z" /></g><g
     transform="translate(461.8401,195.562)"
     id="g36"
     style="fill:#000000;fill-opacity:1"><path
       inkscape:connector-curvature="0"
       id="path38"
       style="fill:#000000;fill-opacity:1;fill-rule:nonzero;stroke:none"
       d="m 0,0 c -2.537,-2.227 -7.823,-2.332 -12.476,-3.181 -4.652,-0.846 -8.88,-2.543 -8.88,-8.054 0,-5.511 4.335,-6.994 9.197,-6.994 C -0.423,-18.229 0,-9.01 0,-5.618 Z m -34.678,11.128 c 0.845,13.99 13.427,18.335 25.692,18.335 10.889,0 23.999,-2.438 23.999,-15.579 v -28.51 c 0,-4.981 0.529,-9.964 1.903,-12.188 H 1.692 c -0.529,1.695 -0.952,3.498 -1.057,5.298 -4.758,-4.981 -11.63,-6.783 -18.397,-6.783 -10.467,0 -18.607,5.194 -18.607,16.428 0.211,24.907 37.004,11.553 36.369,23.848 0,6.358 -4.439,7.419 -9.727,7.419 -5.815,0 -9.409,-2.333 -9.937,-8.268 z" /></g><g
     transform="translate(520.6155,213.6841)"
     id="g40"
     style="fill:#000000;fill-opacity:1"><path
       inkscape:connector-curvature="0"
       id="path42"
       style="fill:#000000;fill-opacity:1;fill-rule:nonzero;stroke:none"
       d="m 0,0 c -8.882,0 -12.794,-8.266 -12.794,-17.593 0,-9.115 3.912,-17.487 12.794,-17.487 8.88,0 12.792,8.372 12.792,17.487 C 12.792,-8.266 8.88,0 0,0 m -27.278,30.736 h 15.013 V 3.181 h 0.211 c 3.7,5.617 10.467,8.16 17.234,8.16 10.889,0 22.625,-8.796 22.625,-28.827 0,-20.032 -11.736,-28.935 -22.625,-28.935 -8.035,0 -14.696,2.438 -17.974,8.479 h -0.211 v -6.995 h -14.273 z" /></g><g
     transform="translate(558.888,244.4204)"
     id="g44"
     style="fill:#000000;fill-opacity:1"><path
       inkscape:connector-curvature="0"
       id="path46"
       style="fill:#000000;fill-opacity:1;fill-rule:nonzero;stroke:none"
       d="m 0,0 h 16.6 v -61.683 h 36.171 v -13.99 H 0 Z" /></g><g
     transform="translate(651.9241,195.562)"
     id="g48"
     style="fill:#000000;fill-opacity:1"><path
       inkscape:connector-curvature="0"
       id="path50"
       style="fill:#000000;fill-opacity:1;fill-rule:nonzero;stroke:none"
       d="m 0,0 c -2.538,-2.227 -7.824,-2.332 -12.477,-3.181 -4.652,-0.846 -8.88,-2.543 -8.88,-8.054 0,-5.511 4.335,-6.994 9.197,-6.994 11.736,0 12.16,9.219 12.16,12.611 z m -34.679,11.128 c 0.846,13.99 13.427,18.335 25.692,18.335 10.889,0 23.999,-2.438 23.999,-15.579 v -28.51 c 0,-4.981 0.529,-9.964 1.904,-12.188 H 1.69 c -0.528,1.695 -0.951,3.498 -1.056,5.298 -4.758,-4.981 -11.63,-6.783 -18.397,-6.783 -10.466,0 -18.607,5.194 -18.607,16.428 0.211,24.907 37.004,11.553 36.37,23.848 0,6.358 -4.441,7.419 -9.728,7.419 -5.815,0 -9.41,-2.333 -9.937,-8.268 z" /></g><g
     transform="translate(708.5823,213.6841)"
     id="g52"
     style="fill:#000000;fill-opacity:1"><path
       inkscape:connector-curvature="0"
       id="path54"
       style="fill:#000000;fill-opacity:1;fill-rule:nonzero;stroke:none"
       d="m 0,0 c -8.881,0 -12.793,-8.266 -12.793,-17.593 0,-9.115 3.912,-17.487 12.793,-17.487 8.881,0 12.793,8.372 12.793,17.487 C 12.793,-8.266 8.881,0 0,0 m -27.277,30.736 h 15.013 V 3.181 h 0.211 c 3.7,5.617 10.467,8.16 17.234,8.16 10.889,0 22.625,-8.796 22.625,-28.827 0,-20.032 -11.736,-28.935 -22.625,-28.935 -8.035,0 -14.696,2.438 -17.974,8.479 h -0.211 v -6.995 h -14.273 z" /></g><text
     transform="scale(0.99342393,-1.0066196)"
     id="text4533"
     y="-167.91513"
     x="773.74792"
     style="font-style:normal;font-variant:normal;font-weight:bold;font-stretch:normal;font-size:29.8027px;line-height:18.6267px;font-family:'Helvetica Neue';-inkscape-font-specification:'Helvetica Neue Bold';letter-spacing:0px;word-spacing:0px;fill:#000000;fill-opacity:1;stroke:none;stroke-width:0.745068px;stroke-linecap:butt;stroke-linejoin:miter;stroke-opacity:1"
     xml:space="preserve"><tspan
       style="font-style:normal;font-variant:normal;font-weight:bold;font-stretch:normal;font-size:102.323px;font-family:'Helvetica Neue';-inkscape-font-specification:'Helvetica Neue Bold';fill:#000000;fill-opacity:1;stroke-width:0.745068px"
       y="-167.91513"
       x="773.74792"
       id="tspan4531"
       sodipodi:role="line">Gdańsk</tspan></text></g>&#10;&#10;<text
   xml:space="preserve"
   style="font-size:64.177px;line-height:1.95;font-family:sans-serif;letter-spacing:0px;word-spacing:0px;fill:#000000;stroke-width:0.356539"
   x="380.57022"
   y="-217.37207"
   id="text1"
   transform="scale(1,-1)"><tspan
     sodipodi:role="line"
     style="font-style:normal;font-variant:normal;font-weight:bold;font-stretch:normal;font-size:64.177px;font-family:'Helvetica Neue';-inkscape-font-specification:'Helvetica Neue Bold';fill:#000000;stroke-width:0.356539"
     x="380.57022"
     y="-217.37207"
     id="tspan2">Pracownia</tspan></text></g></svg>
