<?xml version="1.0" encoding="utf-8"?>
<!-- Generator: Adobe Illustrator 26.0.1, SVG Export Plug-In . SVG Version: 6.00 Build 0)  -->
<svg version="1.1" id="Слой_1" xmlns="http://www.w3.org/2000/svg" xmlns:xlink="http://www.w3.org/1999/xlink" x="0px" y="0px"
	 viewBox="0 0 250.6 55" style="enable-background:new 0 0 250.6 55;" xml:space="preserve">
<style type="text/css">
	.st0{fill-rule:evenodd;clip-rule:evenodd;fill:#FF5043;}
	.st1{fill:#161616;}
</style>
<path class="st0" d="M214.5-98.6h-5.6v18.1c-4.9,1.5-7.7,6.6-6.2,11.5c0.9,3,3.2,5.3,6.2,6.2v18.3h5.6v-11.1l4.3,10.2l5.1-2.2
	L218.6-60l10.1,9.6l3.9-4l-10.5-10l13.6,5.6l2.1-5.2l-11.5-4.7h12.3v-5.6H227l10.9-4.9l-2.3-5.1l-13.5,6.1l10.6-10.6l-3.9-3.9
	l-9.5,9.5l5.4-12.2l-5.1-2.2l-5,11.4L214.5-98.6L214.5-98.6z"/>
<path class="st1" d="M75.6-81.3h-8.9l-6,11.2l-6-11.2h-8.9v19.7h7.3V-71l5.3,9.4H63l5.3-9.4v9.4h7.3V-81.3z M95.2-61.6h8l-8.1-19.7
	H84.3l-8.1,19.7h8l1.3-3.5h8.3L95.2-61.6L95.2-61.6z M87.4-70.2l2.3-5.7l2.3,5.7H87.4L87.4-70.2z M124.5-75.7v-5.6h-20.7v19.7h20.7
	v-5.6H111v-1.8h13.4v-4.8H111v-1.8L124.5-75.7L124.5-75.7z M125-68.6c0,5.8,4.5,7.2,12.5,7.2c8,0,12.5-1.4,12.5-6.8
	c0-5.1-4.8-5.7-12.5-6c-4.2-0.2-4.9-0.1-4.9-0.9c0-0.8,0.7-0.9,4.1-0.9c3.6,0,5.2,0.2,5.2,1.3h7.3c0-5-4.3-6.9-11.9-6.9
	c-7.7,0-11.9,1.9-11.9,6.2c0,4.6,3.4,6,12.2,6.3c4.6,0.1,5.2,0.3,5.2,1.1c0,0.7-0.6,1-4.9,1c-4.6,0-5.5-0.6-5.5-1.6
	C132.3-68.6,125-68.6,125-68.6z M174.1-81.3h-24v6.2h8.4v13.5h7.3v-13.5h8.4V-81.3z M197.8-73.8c0-4.4-3-7.5-7.5-7.5h-15.4v19.7h7.3
	v-4.6h4.3l2.7,4.6h8.6l-3.5-5.6C196.4-68.6,197.8-70.9,197.8-73.8L197.8-73.8z M182.2-75.1h6.7c0.7,0,1.6,0,1.6,1.3
	c0,1.3-0.9,1.3-1.6,1.3h-6.7V-75.1z M210.6-61.4c8.6,0,12.3-3.3,12.3-10.1c0-6.8-3.7-10.1-12.3-10.1c-8.6,0-12.3,3.3-12.3,10.1
	C198.3-64.6,202-61.4,210.6-61.4z M210.6-67.5c-4.3,0-5-1.9-5-4c0-2.1,0.7-3.9,5-3.9s5,1.9,5,3.9C215.6-69.4,214.9-67.5,210.6-67.5z
	"/>
<g>
	<path d="M58.9,14.9c0,2.6-2.1,4.8-4.9,4.8H52V24h-3.2V10.1h5.2C56.8,10.1,58.9,12.2,58.9,14.9z M55.8,14.9c0-1-0.7-1.8-1.7-1.8H52
		v3.6h2.1C55,16.7,55.8,15.9,55.8,14.9z"/>
	<path d="M66.2,13.9v3.4c-1.2-0.2-3,0.3-3,2.3V24h-3v-9.9h3v1.8C63.6,14.5,64.9,13.9,66.2,13.9z"/>
	<path d="M77.4,14.1V24h-3V23c-0.7,0.8-1.6,1.2-3,1.2c-2.6,0-4.7-2.3-4.7-5.2s2.1-5.2,4.7-5.2c1.3,0,2.3,0.5,3,1.2v-0.9H77.4z
		 M74.4,19c0-1.5-1-2.4-2.4-2.4s-2.4,0.9-2.4,2.4s1,2.4,2.4,2.4S74.4,20.5,74.4,19z"/>
	<path d="M79.1,19c0-3,2.2-5.2,5.2-5.2c1.9,0,3.6,1,4.5,2.5l-2.6,1.5c-0.3-0.7-1-1.1-1.9-1.1c-1.3,0-2.2,0.9-2.2,2.3
		c0,1.4,1,2.3,2.2,2.3c0.9,0,1.6-0.4,1.9-1.1l2.6,1.5c-0.9,1.5-2.5,2.6-4.5,2.6C81.3,24.3,79.1,22,79.1,19z"/>
	<path d="M89.3,19c0-3,2.3-5.2,5.2-5.2c2.9,0,5.2,2.3,5.2,5.2s-2.3,5.2-5.2,5.2C91.6,24.3,89.3,22,89.3,19z M96.8,19
		c0-1.4-1-2.3-2.3-2.3c-1.3,0-2.3,0.9-2.3,2.3c0,1.4,1,2.3,2.3,2.3C95.8,21.4,96.8,20.4,96.8,19z"/>
	<path d="M115.2,14.1L112,24h-2.8l-1.6-5.3L106,24h-2.8l-3.2-9.9h3.2l1.4,5.3l1.5-5.3h2.8l1.5,5.3l1.4-5.3H115.2z"/>
	<path d="M125.8,17.9V24h-3v-5.6c0-1.2-0.8-1.8-1.7-1.8c-1.1,0-1.8,0.6-1.8,2V24h-3v-9.9h3V15c0.5-0.7,1.5-1.2,2.8-1.2
		C124.1,13.8,125.8,15.2,125.8,17.9z"/>
	<path d="M127.6,11.4c0-1,0.8-1.8,1.8-1.8s1.8,0.8,1.8,1.8s-0.8,1.8-1.8,1.8S127.6,12.4,127.6,11.4z M127.9,14.1h3V24h-3V14.1z"/>
	<path d="M143.2,14.1V24h-3V23c-0.7,0.8-1.6,1.2-3,1.2c-2.6,0-4.7-2.3-4.7-5.2s2.1-5.2,4.7-5.2c1.3,0,2.3,0.5,3,1.2v-0.9H143.2z
		 M140.2,19c0-1.5-1-2.4-2.4-2.4c-1.4,0-2.4,0.9-2.4,2.4s1,2.4,2.4,2.4C139.2,21.4,140.2,20.5,140.2,19z"/>
</g>
<g>
	<g>
		<path d="M53.2,30.1v3.7h7.1V38h-7.1v7h-4.4V25.9h11.6v4.2H53.2z"/>
		<path d="M76.8,31.4V45h-4.1v-1.3c-0.9,1-2.2,1.7-4.1,1.7c-3.6,0-6.5-3.1-6.5-7.2s2.9-7.2,6.5-7.2c1.8,0,3.2,0.6,4.1,1.7v-1.3H76.8
			z M72.7,38.2c0-2-1.4-3.3-3.2-3.3s-3.2,1.3-3.2,3.3s1.4,3.3,3.2,3.3S72.7,40.2,72.7,38.2z"/>
		<path d="M94.5,38.2c0,4.1-2.9,7.2-6.5,7.2c-1.8,0-3.2-0.6-4.1-1.7V45h-4.1V25.9h4.1v6.7c0.9-1,2.2-1.7,4.1-1.7
			C91.5,31,94.5,34.1,94.5,38.2z M90.4,38.2c0-2-1.4-3.3-3.2-3.3c-1.9,0-3.2,1.3-3.2,3.3s1.4,3.3,3.2,3.3
			C89,41.5,90.4,40.2,90.4,38.2z"/>
		<path d="M108.1,40.8V45H96.9V25.9h4.4v14.9H108.1z"/>
		<path d="M123.7,31.4V45h-4.1v-1.3c-0.9,1-2.2,1.7-4.1,1.7c-3.6,0-6.5-3.1-6.5-7.2s2.9-7.2,6.5-7.2c1.8,0,3.2,0.6,4.1,1.7v-1.3
			H123.7z M119.6,38.2c0-2-1.4-3.3-3.2-3.3s-3.2,1.3-3.2,3.3s1.4,3.3,3.2,3.3S119.6,40.2,119.6,38.2z"/>
		<path d="M141.3,38.2c0,4.1-2.9,7.2-6.5,7.2c-1.8,0-3.2-0.6-4.1-1.7V45h-4.1V25.9h4.1v6.7c0.9-1,2.2-1.7,4.1-1.7
			C138.4,31,141.3,34.1,141.3,38.2z M137.2,38.2c0-2-1.4-3.3-3.2-3.3c-1.9,0-3.2,1.3-3.2,3.3s1.4,3.3,3.2,3.3
			C135.9,41.5,137.2,40.2,137.2,38.2z"/>
		<path d="M169.5,36c0,5.8-4.1,9.4-9.4,9.4c-6,0-10.3-4.4-10.3-9.9c0-5.5,4.4-9.9,10-9.9c3.6,0,6.7,1.8,8.3,4.4l-3.7,2.1
			c-0.8-1.3-2.5-2.2-4.7-2.2c-3.2,0-5.6,2.4-5.6,5.7c0,3.2,2.3,5.6,6,5.6c2.5,0,4.2-1.1,4.9-2.9h-5.1v-3.8h9.6V36z"/>
		<path d="M185.7,25.9V45h-4.1v-1.3c-0.9,1-2.2,1.7-4.1,1.7c-3.6,0-6.5-3.1-6.5-7.2s2.9-7.2,6.5-7.2c1.8,0,3.2,0.6,4.1,1.7v-6.7
			H185.7z M181.7,38.2c0-2-1.4-3.3-3.2-3.3c-1.9,0-3.2,1.3-3.2,3.3s1.4,3.3,3.2,3.3C180.3,41.5,181.7,40.2,181.7,38.2z"/>
		<path d="M202.7,31.4V45h-4.1v-1.3c-0.9,1-2.2,1.7-4.1,1.7c-3.6,0-6.5-3.1-6.5-7.2s2.9-7.2,6.5-7.2c1.8,0,3.2,0.6,4.1,1.7v-1.3
			H202.7z M198.6,38.2c0-2-1.4-3.3-3.2-3.3c-1.9,0-3.2,1.3-3.2,3.3s1.4,3.3,3.2,3.3C197.3,41.5,198.6,40.2,198.6,38.2z"/>
		<path d="M218.8,36.6V45h-4.1v-7.8c0-1.7-1.1-2.5-2.4-2.5c-1.5,0-2.5,0.9-2.5,2.8V45h-4.1V31.4h4.1v1.3c0.7-1,2.1-1.7,3.9-1.7
			C216.4,31,218.8,32.9,218.8,36.6z M213.9,29.5H210l2.2-3.8h4.9L213.9,29.5z"/>
		<path d="M232.1,40.9c0,3.1-2.7,4.5-5.7,4.5c-2.7,0-4.8-1-5.9-3.2l3.5-2c0.4,1,1.1,1.6,2.3,1.6c1,0,1.5-0.3,1.5-0.8
			c0-1.5-6.7-0.7-6.7-5.4c0-3,2.5-4.5,5.3-4.5c2.2,0,4.2,1,5.3,2.9l-3.5,1.9c-0.4-0.7-0.9-1.2-1.8-1.2c-0.7,0-1.1,0.3-1.1,0.8
			C225.4,36.9,232.1,35.9,232.1,40.9z"/>
		<path d="M242.6,45l-4.4-6v6h-4.1V25.9h4.1v11.4l4.1-6h4.8l-5,6.8l5.1,6.8H242.6z"/>
	</g>
</g>
</svg>
